<?xml version="1.0" encoding="UTF-8"?>
<svg width="375px" height="240px" viewBox="0 0 375 240" version="1.1" xmlns="http://www.w3.org/2000/svg" xmlns:xlink="http://www.w3.org/1999/xlink">
    <title>hdpi/connect_box_mercury_v1</title>
    <defs>
        <polygon id="path-1" points="0 0 63.7839 0 63.7839 16.3306 0 16.3306"></polygon>
    </defs>
    <g id="connect_box_mercury_v1" stroke="none" stroke-width="1" fill="none" fill-rule="evenodd">
        <g id="04_atoms/colors/02_neutral_colors/neutral_light_gray_2" fill="#F5F5F5">
            <rect id="Shape" x="0" y="0" width="375" height="280"></rect>
        </g>
        <g id="Group-24" transform="translate(156.000000, 34.000000)">
            <g id="Group-3" transform="translate(0.000000, 156.429500)">
                <mask id="mask-2" fill="white">
                    <use xlink:href="#path-1"></use>
                </mask>
                <g id="Clip-2"></g>
                <path d="M56.3079,0 L20.3049,0 L17.2209,0 L7.4759,0 C3.3469,0 -0.0001,3.656 -0.0001,8.165 L-0.0001,8.165 C-0.0001,12.675 3.3469,16.331 7.4759,16.331 L20.5819,16.331 C20.5739,15.986 20.5689,15.642 20.5619,15.298 C20.5809,15.642 20.5889,15.986 20.5819,16.331 L56.3079,16.331 C60.4369,16.331 63.7839,12.675 63.7839,8.165 L63.7839,8.165 C63.7839,3.656 60.4369,0 56.3079,0" id="Fill-1" fill="#D9D9D9" mask="url(#mask-2)"></path>
            </g>
            <path d="M55.3002,163.028 L8.4882,163.028 L8.4882,0 L43.2752,0 C49.9162,0 55.3002,5.383 55.3002,12.024 L55.3002,163.028 Z" id="Fill-4" fill="#EBECED"></path>
            <path d="M55.3002,163.028 L8.4882,163.028 L8.4882,0 L43.2752,0 C49.9162,0 55.3002,5.383 55.3002,12.024 L55.3002,163.028 Z" id="Stroke-6" stroke="#424445" stroke-width="3"></path>
            <path d="M27.8429,113.4257 C27.8429,111.1887 29.6569,109.3747 31.8939,109.3747 C34.1319,109.3747 35.9449,111.1887 35.9449,113.4257 C35.9449,115.6627 34.1319,117.4767 31.8939,117.4767 C29.6569,117.4767 27.8429,115.6627 27.8429,113.4257" id="Fill-8" fill="#C7CCD1"></path>
            <path d="M27.8429,126.3105 C27.8429,124.0735 29.6569,122.2595 31.8939,122.2595 C34.1319,122.2595 35.9449,124.0735 35.9449,126.3105 C35.9449,128.5475 34.1319,130.3615 31.8939,130.3615 C29.6569,130.3615 27.8429,128.5475 27.8429,126.3105" id="Fill-10" fill="#C7CCD1"></path>
            <path d="M39.8975,148.784 L23.8905,148.784 C21.1915,148.784 19.0025,146.595 19.0025,143.896 L19.0025,143.896 C19.0025,141.196 21.1915,139.007 23.8905,139.007 L39.8975,139.007 C42.5975,139.007 44.7855,141.196 44.7855,143.896 L44.7855,143.896 C44.7855,146.595 42.5975,148.784 39.8975,148.784" id="Fill-12" fill="#FFFFFF"></path>
            <path d="M39.8975,148.784 L23.8905,148.784 C21.1915,148.784 19.0025,146.595 19.0025,143.896 L19.0025,143.896 C19.0025,141.196 21.1915,139.007 23.8905,139.007 L39.8975,139.007 C42.5975,139.007 44.7855,141.196 44.7855,143.896 L44.7855,143.896 C44.7855,146.595 42.5975,148.784 39.8975,148.784 Z" id="Stroke-14" stroke="#C7CCD1" stroke-width="3"></path>
            <path d="M53.2041,8.3787 C51.7741,4.3847 47.9661,1.5217 43.4801,1.5217 L9.9831,1.5217 L9.9831,8.3787 L53.2041,8.3787 Z" id="Fill-16" fill="#F4F4F4"></path>
            <path d="M38.3854,47.9581 C38.3344,46.5271 37.2684,45.3371 35.8524,45.1281 L29.6584,45.1281 L36.8414,38.2511 C37.4634,37.6521 37.6584,36.7361 37.3364,35.9351 C36.9644,35.0891 36.0754,34.5921 35.1594,34.7181 L26.2544,34.7181 C26.1684,36.0731 27.0854,37.2881 28.4114,37.5781 L33.5174,37.5781 L25.9574,44.6731 C25.4124,45.2341 25.2494,46.0641 25.5414,46.7901 C25.8974,47.6081 26.7564,48.0861 27.6394,47.9581 L38.3854,47.9581 Z" id="Fill-18" fill="#F48C00"></path>
            <path d="M22.8501,47.869 C22.8451,49.252 23.9611,50.377 25.3441,50.382 C25.3501,50.382 25.3571,50.382 25.3631,50.382 L38.4251,50.382 C39.8081,50.388 40.9331,49.271 40.9381,47.889 C40.9381,47.882 40.9381,47.876 40.9381,47.869 L40.9381,37.301 C41.0711,35.838 42.2991,34.717 43.7681113,34.718 L43.7681113,47.869 C43.7741,50.815 41.3901,53.207 38.4451,53.2120113 C38.4381,53.2120113 38.4321,53.2120113 38.4251,53.2120113 L25.3631,53.2120113 C22.4181,53.218 20.0251,50.834 20.0200921,47.889 C20.0200921,47.882 20.0200921,47.876 20.0200921,47.869 L20.0200921,34.807 C20.0151,31.862 22.3981,29.47 25.3441,29.464 C25.3501,29.464 25.3571,29.464 25.3631,29.464 L38.4251,29.464 C39.1241,29.465 39.8171,29.603 40.4631,29.87 C41.2241,30.163 41.9021,30.635 42.4421,31.245 C42.7041,31.509 42.8531,31.864 42.8581,32.235 C42.8581,33.016 42.2241,33.65 41.4431,33.65 C41.0721,33.641 40.7191,33.493 40.4531,33.234 C40.1831,32.913 39.8451,32.656 39.4641,32.482 C39.1511,32.35 38.8141,32.283 38.4741,32.284 L25.3631,32.284 C23.9811,32.279 22.8551,33.395 22.8501,34.778 C22.8501,34.788 22.8501,34.798 22.8501,34.807 L22.8501,47.869 Z" id="Fill-20" fill="#F48C00"></path>
            <path d="M55.3002,163.028 L8.4882,163.028 L8.4882,0 L43.2752,0 C49.9162,0 55.3002,5.383 55.3002,12.024 L55.3002,163.028 Z" id="Stroke-22" stroke="#424445" stroke-width="4"></path>
        </g>
    </g>
</svg>