<?xml version="1.0" encoding="UTF-8"?>
<svg width="375px" height="240px" viewBox="0 0 375 240" version="1.1" xmlns="http://www.w3.org/2000/svg" xmlns:xlink="http://www.w3.org/1999/xlink">
    <title>hdpi/connect_box_mercury_v2</title>
    <defs>
        <polygon id="path-1" points="0 0 84.436 0 84.436 16.3306 0 16.3306"></polygon>
        <polygon id="path-3" points="1.42108547e-14 0 84.436 0 84.436 16.3306 1.42108547e-14 16.3306"></polygon>
    </defs>
    <g id="connect_box_mercury_v2" stroke="none" stroke-width="1" fill="none" fill-rule="evenodd">
        <g id="04_atoms/colors/02_neutral_colors/neutral_light_gray_2" fill="#F5F5F5">
            <rect id="Shape" x="0" y="0" width="375" height="280"></rect>
        </g>
        <g id="Group-43" transform="translate(83.000000, 31.000000)">
            <g id="Group-3" transform="translate(2.662700, 161.468700)">
                <mask id="mask-2" fill="white">
                    <use xlink:href="#path-1"></use>
                </mask>
                <g id="Clip-2"></g>
                <path d="M74.54,0 L26.879,0 L22.797,0 L9.896,0 C4.431,0 0,3.656 0,8.165 L0,8.165 C0,12.675 4.431,16.331 9.896,16.331 L27.246,16.331 C27.236,15.986 27.229,15.642 27.219,15.298 C27.245,15.642 27.256,15.986 27.246,16.331 L74.54,16.331 C80.005,16.331 84.436,12.675 84.436,8.165 L84.436,8.165 C84.436,3.656 80.005,0 74.54,0" id="Fill-1" fill="#D9D9D9" mask="url(#mask-2)"></path>
            </g>
            <g id="Group-6" transform="translate(118.466400, 161.468700)">
                <mask id="mask-4" fill="white">
                    <use xlink:href="#path-3"></use>
                </mask>
                <g id="Clip-5"></g>
                <path d="M74.54,0 L26.879,0 L22.797,0 L9.896,0 C4.431,0 1.42108547e-14,3.656 1.42108547e-14,8.165 L1.42108547e-14,8.165 C1.42108547e-14,12.675 4.431,16.331 9.896,16.331 L27.246,16.331 C27.236,15.986 27.229,15.642 27.219,15.298 C27.245,15.642 27.256,15.986 27.246,16.331 L74.54,16.331 C80.005,16.331 84.436,12.675 84.436,8.165 L84.436,8.165 C84.436,3.656 80.005,0 74.54,0" id="Fill-4" fill="#D9D9D9" mask="url(#mask-4)"></path>
            </g>
            <path d="M77.3313,168.0672 L14.3823,168.0672 L0.0563,6.6562 C0.0563,6.6562 18.8533,0.0002 46.5393,0.0002 C60.9313,0.0002 78.9023,1.8342 85.2863,3.0142 C90.2343,3.9292 94.1013,8.5392 93.8343,13.5642 L77.3313,168.0672 Z" id="Fill-7" fill="#EBECED"></path>
            <path d="M77.3313,168.0672 L14.3823,168.0672 L0.0563,6.6562 C0.0563,6.6562 18.8533,0.0002 46.5393,0.0002 C60.9313,0.0002 78.9023,1.8342 85.2863,3.0142 C90.2343,3.9292 94.1013,8.5392 93.8343,13.5642 L77.3313,168.0672 Z" id="Stroke-9" stroke="#424445" stroke-width="3"></path>
            <path d="M92.329,7.914 C90.799,5.43 88.241,3.561 85.287,3.015 C78.902,1.834 60.932,0 46.539,0 C18.853,0 0.057,6.656 0.057,6.656 L0.168,7.914 L92.329,7.914 Z" id="Fill-11" fill="#FFFFFF"></path>
            <path d="M88.0977,154.5966 L78.8037,153.5646 L83.1187,114.7266 L92.4117,115.7586 C94.0587,115.9416 95.2457,117.4246 95.0627,119.0716 L91.4107,151.9466 C91.2277,153.5926 89.7447,154.7796 88.0977,154.5966" id="Fill-13" fill="#F48C00"></path>
            <path d="M88.0977,154.5966 L78.8037,153.5646 L83.1187,114.7266 L92.4117,115.7586 C94.0587,115.9416 95.2457,117.4246 95.0627,119.0716 L91.4107,151.9466 C91.2277,153.5926 89.7447,154.7796 88.0977,154.5966 Z" id="Stroke-15" stroke="#424445" stroke-width="3"></path>
            <g id="Group-20" transform="translate(4.171300, 52.517800)">
                <line x1="2.66453526e-15" y1="0.5" x2="85.449" y2="0.5" id="Fill-17" fill="#57595B"></line>
                <line x1="2.66453526e-15" y1="0.5" x2="85.449" y2="0.5" id="Stroke-19" stroke="#424445" stroke-width="3"></line>
            </g>
            <path d="M191.1201,168.0672 L128.1711,168.0672 L113.8451,6.6562 C113.8451,6.6562 132.6421,0.0002 160.3281,0.0002 C174.7201,0.0002 192.6911,1.8342 199.0751,3.0142 C204.0231,3.9292 207.8901,8.5392 207.6231,13.5642 L191.1201,168.0672 Z" id="Fill-21" fill="#666666"></path>
            <path d="M191.1201,168.0672 L128.1711,168.0672 L113.8451,6.6562 C113.8451,6.6562 132.6421,0.0002 160.3281,0.0002 C174.7201,0.0002 192.6911,1.8342 199.0751,3.0142 C204.0231,3.9292 207.8901,8.5392 207.6231,13.5642 L191.1201,168.0672 Z" id="Stroke-23" stroke="#424445" stroke-width="3" stroke-linecap="round" stroke-linejoin="round"></path>
            <path d="M201.8865,154.5966 L192.5925,153.5646 L196.9075,114.7266 L206.2005,115.7586 C207.8475,115.9416 209.0345,117.4246 208.8515,119.0716 L205.1995,151.9466 C205.0165,153.5926 203.5335,154.7796 201.8865,154.5966" id="Fill-25" fill="#F48C00"></path>
            <path d="M201.8865,154.5966 L192.5925,153.5646 L196.9075,114.7266 L206.2005,115.7586 C207.8475,115.9416 209.0345,117.4246 208.8515,119.0716 L205.1995,151.9466 C205.0165,153.5926 203.5335,154.7796 201.8865,154.5966 Z" id="Stroke-27" stroke="#424445" stroke-width="3"></path>
            <g id="Group-32" transform="translate(117.960200, 52.517800)">
                <line x1="0" y1="0.5" x2="85.449" y2="0.5" id="Fill-29" fill="#57595B"></line>
                <line x1="0" y1="0.5" x2="85.449" y2="0.5" id="Stroke-31" stroke="#424445" stroke-width="3"></line>
            </g>
            <polygon id="Fill-33" fill="#FFFFFF" points="5.8533 54.528 6.2313 58.773 87.5363 58.773 87.9263 54.528"></polygon>
            <polygon id="Fill-35" fill="#808080" points="119.648 54.528 120.026 58.773 201.331 58.773 201.721 54.528"></polygon>
            <path d="M77.275,168.0672 L14.326,168.0672 L0,6.6562 C0,6.6562 18.797,0.0002 46.483,0.0002 C60.875,0.0002 78.846,1.8342 85.23,3.0142 C90.178,3.9292 94.045,8.5392 93.778,13.5642 L77.275,168.0672 Z" id="Stroke-37" stroke="#424445" stroke-width="3"></path>
            <path d="M207.4939,7.914 C205.9639,5.43 203.4059,3.561 200.4519,3.015 C194.0669,1.834 176.0969,0 161.7039,0 C134.0179,0 115.2219,6.656 115.2219,6.656 L115.3329,7.914 L207.4939,7.914 Z" id="Fill-39" fill="#808080"></path>
            <path d="M191.1201,168.0672 L128.1711,168.0672 L113.8451,6.6562 C113.8451,6.6562 132.6421,0.0002 160.3281,0.0002 C174.7201,0.0002 192.6911,1.8342 199.0751,3.0142 C204.0231,3.9292 207.8901,8.5392 207.6231,13.5642 L191.1201,168.0672 Z" id="Stroke-41" stroke="#424445" stroke-width="3" stroke-linecap="round" stroke-linejoin="round"></path>
        </g>
    </g>
</svg>