<?xml version="1.0" encoding="UTF-8"?>
<svg width="375px" height="240px" viewBox="0 0 375 240" version="1.1" xmlns="http://www.w3.org/2000/svg" xmlns:xlink="http://www.w3.org/1999/xlink">
    <title>hdpi/Error</title>
    <g id="Error" stroke="none" stroke-width="1" fill="none" fill-rule="evenodd">
        <g id="04_atoms/colors/02_neutral_colors/neutral_light_gray_2" fill="#F5F5F5">
            <rect id="Shape" x="0" y="0" width="375" height="280"></rect>
        </g>
        <g id="Group-51" transform="translate(50.000000, 36.000000)">
            <path d="M42.271,59.6132 L40.096,22.4812 C40.096,16.7662 35.96,12.1322 30.86,12.1322 L26.116,12.1322 L26.116,79.2052 C25.779,78.5512 19.838,66.9722 19.838,66.9722 C18.53,64.9462 16.576,61.4122 13.598,60.0532 C10.686,58.7262 7.501,58.9082 5.191,59.6582 C2.88,60.4162 7.10542736e-15,61.7042 7.10542736e-15,61.7042 C0.705,64.3442 12.705,85.3732 12.705,85.3732 C12.705,85.3732 25.831,108.2212 25.889,121.8522 C25.954,136.6282 63.436,141.0682 70.186,125.0882 C71.921,120.9782 78.756,114.2662 79.714,108.7132 C82.348,93.4252 82.452,78.3312 83.1770011,73.0762 C83.183,73.0762 59.656,63.6912 42.271,59.6132" id="Fill-1" fill="#F48C00"></path>
            <polygon id="Fill-3" fill="#F48C00" points="70.1993 125.0879 25.8953 121.8519 25.8953 167.4429 70.1993 167.4429"></polygon>
            <polygon id="Fill-5" fill="#F07500" points="40.9441 127.6769 25.8961 121.8519 25.8961 167.4429 40.9441 167.4429"></polygon>
            <path d="M78.1863,95.0495 L80.6913,93.7875 L83.1833,73.0825 C83.1963,72.9655 83.9793,70.1435 82.0113,67.6515 C80.4063,65.6135 76.7753,65.3735 76.7753,65.3735 C73.5843,65.3735 70.9953,67.9625 70.9953,71.1535 L70.9953,87.8655 C70.9953,91.8325 74.2123,95.0495 78.1863,95.0495" id="Fill-7" fill="#F48C00"></path>
            <path d="M64.6396,92.4347 L72.1346,92.4347 L72.1346,66.5447 C72.1346,62.4287 68.7946,59.0887 64.6786,59.0887 C60.5616,59.0887 57.222589,62.4287 57.222589,66.5447 L57.222589,82.4217 C57.2156,86.5257 60.5426,92.4347 64.6396,92.4347" id="Fill-9" fill="#F48C00"></path>
            <path d="M49.4294,92.0593 L57.8374,92.0593 C57.9864,92.0593 58.1084,91.9363 58.1084,91.7873 L58.1084,62.4093 C58.1084,57.9303 54.4774,54.3063 50.0054,54.3063 C45.5264,54.3063 41.9023891,57.9373 41.9023891,62.4093 L41.9023891,81.9363 C41.8954,86.0983 45.2674,92.0593 49.4294,92.0593" id="Fill-11" fill="#F48C00"></path>
            <path d="M9.9996,74.2732 C5.7796,66.4032 0.0066,61.7042 0.0066,61.7042 C5.1646,72.1312 12.7116,85.3732 12.7116,85.3732 C12.7116,85.3732 25.8376,108.2212 25.8956,121.8522 C25.9606,136.6282 40.9446,145.0232 40.9446,127.6772 C40.9446,119.8192 30.6596,112.4732 24.9636,101.3152 C19.2806,90.1562 11.2296,76.5642 9.9996,74.2732" id="Fill-13" fill="#F07500"></path>
            <path d="M31.0478,74.189 L30.5948,24.144 C30.2908,13.038 26.1227929,12.132 26.1227929,12.132 L26.1227929,91.444 C26.1158,91.444 31.3128,88.105 31.0478,74.189" id="Fill-15" fill="#F07500"></path>
            <path d="M70.1993,167.4433 L70.1993,125.0883 C71.9343,120.9783 78.7683,114.2663 79.7263,108.7123 C82.3613,93.4253 82.4643,78.3313 83.1893,73.0753 C83.2023,72.9593 83.6753,70.3573 82.0183,67.6453 C80.4063,65.0113 76.7813,65.3673 76.7813,65.3673 C74.8793,65.3673 73.1963,66.2923 72.1413,67.7103 L72.1413,66.7843 C72.1413,62.8103 69.1313,59.3543 65.1633,59.1083 C62.1283,58.9143 59.4483,60.5453 58.1153,63.0113 L58.1153,62.6873 C58.1153,58.0603 54.3683,54.3123 49.7403,54.3123 C46.2963,54.3123 43.3773,56.5393 42.3293,59.6263 C42.2963,59.6193 42.3093,59.6263 42.2773,59.6193 L40.1023,22.4873 C40.1023,16.7723 35.9663,12.1383 30.8663,12.1383 L26.1223,12.1383 L26.1223,79.2113 C25.7853,78.5583 19.8443,66.9783 19.8443,66.9783 C18.5363,64.9533 16.5823,61.4193 13.6043,60.0603 C10.6923,58.7333 7.5073,58.9143 5.1973,59.6653 C2.8863,60.4223 0.0063,61.7103 0.0063,61.7103 C0.7113,64.3513 12.7113,85.3803 12.7113,85.3803 C12.7113,85.3803 25.8373,108.2273 25.8953,121.8583 L25.8953,167.4503" id="Stroke-17" stroke="#424445" stroke-width="4" stroke-linecap="round" stroke-linejoin="round"></path>
            <line x1="26.1159" y1="79.2051" x2="26.1159" y2="93.2501" id="Stroke-19" stroke="#424445" stroke-width="4" stroke-linecap="round" stroke-linejoin="round"></line>
            <line x1="56.8468" y1="68.0402" x2="58.1088" y2="63.0042" id="Stroke-21" stroke="#424445" stroke-width="4" stroke-linecap="round" stroke-linejoin="round"></line>
            <line x1="70.9955" y1="71.6065" x2="72.1345" y2="67.7105" id="Stroke-23" stroke="#424445" stroke-width="4" stroke-linecap="round" stroke-linejoin="round"></line>
            <g id="Group-28" transform="translate(248.211300, 0.000000)">
                <line x1="0" y1="12.421" x2="2.555" y2="0" id="Fill-25" fill="#F48C00"></line>
                <line x1="0" y1="12.421" x2="2.555" y2="0" id="Stroke-27" stroke="#F48C00" stroke-width="4" stroke-linecap="round" stroke-linejoin="round"></line>
            </g>
            <g id="Group-32" transform="translate(258.365800, 2.028000)">
                <line x1="0" y1="15.193" x2="15.175" y2="0" id="Fill-29" fill="#F48C00"></line>
                <line x1="0" y1="15.193" x2="15.175" y2="0" id="Stroke-31" stroke="#F48C00" stroke-width="4" stroke-linecap="round" stroke-linejoin="round"></line>
            </g>
            <g id="Group-36" transform="translate(262.874900, 25.934200)">
                <line x1="0" y1="2.073" x2="13.055" y2="0" id="Fill-33" fill="#F48C00"></line>
                <line x1="0" y1="2.073" x2="13.055" y2="0" id="Stroke-35" stroke="#F48C00" stroke-width="4" stroke-linecap="round" stroke-linejoin="round"></line>
            </g>
            <path d="M225.1334,19.2259 L118.2044,19.2259 L118.2044,109.4019 L101.9674,109.4019 L118.2044,126.9899 L118.2044,163.6629 L248.2114,163.6629 L248.2114,42.3039 C248.2114,29.5579 237.8794,19.2259 225.1334,19.2259 Z" id="Stroke-37" stroke="#424445" stroke-width="4" stroke-linecap="round" stroke-linejoin="round"></path>
            <path d="M224.1475,137.282 L143.9475,137.282 C141.3115,137.282 139.1735,135.145 139.1735,132.508 L139.1735,132.508 C139.1735,129.872 141.3115,127.734 143.9475,127.734 L224.1475,127.734 C226.7845,127.734 228.9215,129.872 228.9215,132.508 L228.9215,132.508 C228.9215,135.145 226.7845,137.282 224.1475,137.282" id="Fill-39" fill="#D9D9D9"></path>
            <path d="M141.9988,115.6556 L174.2568,48.3876 C178.2618,40.0366 190.1518,40.0366 194.1568,48.3876 L226.4148,115.6556 C229.9268,122.9806 224.5888,131.4616 216.4648,131.4616 L151.9488,131.4616 C143.8248,131.4616 138.4858,122.9806 141.9988,115.6556" id="Fill-41" fill="#F48C00"></path>
            <path d="M141.9988,115.6556 L174.2568,48.3876 C178.2618,40.0366 190.1518,40.0366 194.1568,48.3876 L226.4148,115.6556 C229.9268,122.9806 224.5888,131.4616 216.4648,131.4616 L151.9488,131.4616 C143.8248,131.4616 138.4858,122.9806 141.9988,115.6556 Z" id="Stroke-43" stroke="#424445" stroke-width="4"></path>
            <path d="M189.9724,80.3514 L189.9724,105.822402 C184.4574,105.8254 179.8514,101.6224 179.3514,96.1304 L179.3514,80.3514 L189.9724,80.3514 Z" id="Fill-45" fill="#FFFFFF"></path>
            <path d="M179.3517,85.69 L179.3517,62.8649984 C184.8667,62.862 189.4727,67.065 189.9727,72.557 L189.9727,85.69 L179.3517,85.69 Z" id="Fill-47" fill="#FFFFFF"></path>
            <path d="M178.2424,115.9931 C178.2424,112.6991 180.9124,110.0291 184.2064,110.0291 C187.5004,110.0291 190.1714,112.6991 190.1714,115.9931 C190.1714,119.2871 187.5004,121.9571 184.2064,121.9571 C180.9124,121.9571 178.2424,119.2871 178.2424,115.9931" id="Fill-49" fill="#FFFFFF"></path>
        </g>
    </g>
</svg>