<?xml version="1.0" encoding="UTF-8"?>
<svg width="375px" height="240px" viewBox="0 0 375 240" version="1.1" xmlns="http://www.w3.org/2000/svg" xmlns:xlink="http://www.w3.org/1999/xlink">
    <title>hdpi/failure</title>
    <g id="failure" stroke="none" stroke-width="1" fill="none" fill-rule="evenodd">
        <g id="04_atoms/colors/02_neutral_colors/neutral_light_gray_2" fill="#F5F5F5">
            <rect id="Shape" x="0" y="0" width="375" height="280"></rect>
        </g>
        <g id="Group-33" transform="translate(104.000000, 52.000000)">
            <path d="M59.1316,67.4201952 L0.0086,67.4201952 L0.0086,4.78219524 L59.1316,4.78219524 L130.5586,4.43519524 C130.5586,4.43519524 143.3706,2.88019524 143.9026,7.09719524 C144.4266,11.2381952 138.8406,14.3141952 139.1366,19.8581952 C140.3786,43.5041952 139.2716,79.6061952 139.2716,79.6061952 L59.1316,67.4201952 Z" id="Fill-1" fill="#F48C00"></path>
            <path d="M60.7203,67.5046952 C73.6923,77.4766952 83.6903,82.2516952 95.2513,92.5276952 C106.8113,102.804695 103.1023,123.213695 103.1023,123.213695 L103.3893,135.230695 L112.1103,135.145695 C114.7893,135.230695 117.7473,134.444695 120.7053,132.357695 C124.4913,129.678695 127.0353,123.213695 126.9333,113.714695 C126.8323,104.215695 125.5983,102.702695 126.1473,90.2716952 C126.6543,78.8376952 152.7253,80.6966952 152.7253,80.6966952 C152.7253,80.6966952 125.1163,33.0506952 96.0793,35.0616952 C75.9403,36.4556952 65.7903,28.4106952 65.7903,28.4106952 C65.7903,28.4106952 44.3513,54.9126952 60.7203,67.5046952" id="Fill-3" fill="#F48C00"></path>
            <path d="M111.7218,7.95089524 L111.7218,2.08589524 L148.3988,0.0238952441 C154.2888,-0.306104756 157.9228,4.59589524 157.9228,8.99889524 L157.9228,9.89489524 C157.9228,14.3058952 153.5118,17.8718952 148.0698,17.8718952 L123.9928,17.8718952 C117.2068,17.8718952 111.7218,13.4358952 111.7218,7.95089524" id="Fill-5" fill="#F48C00"></path>
            <path d="M111.7218,28.3852952 L111.7218,17.8722952 L152.8268,17.8722952 C158.4218,17.8722952 162.9598,22.4102952 162.9598,28.0052952 L162.9598,28.3432952 C162.9598,33.9372952 158.4218,38.4752952 152.8268,38.4752952 L121.8038,38.4752952 C116.2348,38.4672952 111.7218,33.9542952 111.7218,28.3852952" id="Fill-7" fill="#F48C00"></path>
            <path d="M111.7218,68.8398952 L111.7218,60.1018952 L150.2408,60.1018952 C157.2638,60.1018952 162.9598,64.7158952 162.9598,70.3948952 C162.9598,76.0818952 157.9228,80.6878952 150.2408,80.6878952 L124.3818,79.0828952 C116.3108,78.4988952 111.7218,74.5018952 111.7218,68.8398952" id="Fill-9" fill="#F48C00"></path>
            <path d="M111.5865,50.2393952 L111.5865,38.4673952 L156.5795,38.4673952 C162.4525,38.4673952 167.2195,43.2333952 167.2195,49.1073952 L167.2195,49.4623952 C167.2195,55.3353952 162.4525,60.1013952 156.5795,60.1013952 L121.4485,60.1013952 C116.0065,60.1013952 111.5865,55.6903952 111.5865,50.2393952" id="Fill-11" fill="#F48C00"></path>
            <path d="M107.547,111.010095 C107.581,114.052095 108.147,129.340095 108.147,129.340095 C108.147,133.608095 103.389,135.230095 103.389,135.230095 C103.389,135.230095 102.916,118.709095 102.595,111.365095 C102.274,104.021095 95.242,93.1360952 90.113,90.2800952 C73.912,81.2540952 66.805,81.0600952 60.72,67.5050952 C60.712,67.4790952 60.686,67.4710952 60.661,67.4620952 L59.123,67.4200952 L0,67.4200952 L0,49.1410952 L63.349,49.1410952 C63.349,49.1410952 70.557,72.7950952 89.192,81.1270952 C104.243,87.8630952 107.437,101.511095 107.547,111.010095" id="Fill-13" fill="#F07500"></path>
            <path d="M111.7218,9.55659524 L111.7218,2.08559524 L125.8178,1.08859524 C125.8178,1.08859524 125.7758,5.88059524 125.7758,7.23259524 C125.7758,7.89159524 125.7668,11.6695952 129.8918,11.7115952 C134.0238,11.7625952 146.2098,11.5085952 146.2098,11.5085952 C154.5428,11.3735952 156.2328,14.3655952 156.2328,14.3655952 C154.4578,16.4865952 151.4578,17.8805952 148.0608,17.8805952 L123.9838,19.4865952 C117.2068,19.4775952 111.7218,15.0325952 111.7218,9.55659524" id="Fill-15" fill="#F07500"></path>
            <path d="M111.7218,25.1992952 L111.7218,17.8722952 L126.4598,17.8722952 L126.4598,26.5932952 C126.4598,26.5932952 126.2998,30.9792952 132.0798,31.1482952 C137.8608,31.3172952 146.7508,31.2842952 152.7338,31.3942952 C157.9148,31.4862952 160.7878,33.9292952 160.7878,33.9292952 C158.5058,36.6672952 154.6358,38.4672952 150.2408,38.4672952 L124.3818,38.4672952 C115.9898,38.4672952 111.7218,32.6362952 111.7218,25.1992952" id="Fill-17" fill="#F07500"></path>
            <path d="M111.5865,50.2985952 L111.5865,38.4675952 L127.6435,38.4675952 L127.6435,46.8755952 C127.6435,46.8755952 126.8235,53.9235952 137.0155,53.8985952 L152.7345,54.1015952 C159.8665,53.9155952 164.1345,56.3405952 164.1345,56.3405952 C161.7425,58.6315952 158.1595,60.0936062 154.1625,60.0936062 L123.6965,60.0936062 C117.0035,60.1015952 111.5865,55.7155952 111.5865,50.2985952" id="Fill-19" fill="#F07500"></path>
            <path d="M111.7218,68.8398952 L111.7218,60.1018952 L128.4458,60.1018952 L128.4458,70.3948952 C128.4458,70.3948952 128.6068,75.2118952 134.4718,75.3388952 C137.4468,75.4058952 147.9008,75.5158952 147.9008,75.5158952 C153.9768,75.6428952 157.7798,79.2938952 157.7798,79.2938952 C155.9038,80.1808952 152.7938,80.6878952 150.2408,80.6878952 C150.2408,80.6878952 141.3588,79.1248952 135.1988,79.1248952 C129.0378,79.1248952 124.3808,79.0828952 124.3808,79.0828952 C116.3108,78.4988952 111.7218,74.5018952 111.7218,68.8398952" id="Fill-21" fill="#F07500"></path>
            <path d="M0.0088,4.78179524 L59.1318,4.78179524 L111.7218,4.52779524 L111.7218,2.07779524 L148.3988,0.0157952441 C154.2888,-0.314204756 157.9228,4.58779524 157.9228,8.99079524 L157.9228,9.89479524 C157.9228,14.3057952 153.5118,17.8717952 148.0688,17.8717952 L152.8358,17.8717952 C158.4298,17.8717952 162.9678,22.4107952 162.9678,28.0047952 L162.9678,28.3427952 C162.9678,33.9377952 158.4298,38.4757952 152.8438,38.4757952 L156.5958,38.4757952 C162.4698,38.4757952 167.2358,43.2417952 167.2358,49.1157952 L167.2358,49.4707952 C167.2358,55.3437952 162.4698,60.1097952 156.5958,60.1097952 L150.2498,60.1097952 C157.2728,60.1097952 162.9678,64.7247952 162.9678,70.4037952 C162.9678,75.4737952 158.9628,80.0207952 152.6498,80.5357952 C150.8578,80.6037952 148.4748,80.5947952 148.4748,80.5947952 C145.6018,80.6037952 140.2438,80.7047952 135.6298,81.1017952 C129.5958,81.6257952 126.4008,85.0737952 126.1728,90.2797952 C125.6238,102.702795 126.8578,104.223795 126.9588,113.722795 C127.0608,123.221795 124.5248,129.694795 120.7308,132.365795 C117.7728,134.452795 114.8148,135.238795 112.1358,135.154795 L103.4148,135.238795 C103.4148,135.238795 102.9418,118.717795 102.6208,111.373795 C102.2988,104.029795 97.4818,94.1337952 90.1388,90.2887952 C73.7688,81.7107952 68.4788,81.6177952 60.8138,67.6487952 L59.1568,67.4287952 L0.0348,67.4287952" id="Stroke-23" stroke="#424445" stroke-width="4" stroke-linecap="round" stroke-linejoin="round"></path>
            <line x1="111.7218" y1="9.55659524" x2="111.7218" y2="2.08559524" id="Stroke-25" stroke="#424445" stroke-width="4" stroke-linecap="round" stroke-linejoin="round"></line>
            <path d="M150.2328,60.1016952 L111.7138,60.1016952 L111.7138,68.8396952 C111.7138,68.8396952 110.5298,76.8686952 119.3788,78.7276952" id="Stroke-27" stroke="#424445" stroke-width="4" stroke-linecap="round" stroke-linejoin="round"></path>
            <path d="M154.5427,38.4671952 L111.5947,38.4671952 L111.5947,47.2221952 C111.5947,50.2311952 113.1077,60.0931952 124.8127,60.0931952" id="Stroke-29" stroke="#424445" stroke-width="4" stroke-linecap="round" stroke-linejoin="round"></path>
            <path d="M154.5427,17.8722952 L111.5947,17.8722952 L111.5947,23.5432952 C111.5947,23.5432952 110.1917,38.4672952 124.3817,38.4672952" id="Stroke-31" stroke="#424445" stroke-width="4" stroke-linecap="round" stroke-linejoin="round"></path>
        </g>
    </g>
</svg>