<?xml version="1.0" encoding="UTF-8"?>
<svg width="375px" height="240px" viewBox="0 0 375 240" version="1.1" xmlns="http://www.w3.org/2000/svg" xmlns:xlink="http://www.w3.org/1999/xlink">
    <title>hdpi/home_scan_before_scanning</title>
    <g id="home_scan_before_scanning" stroke="none" stroke-width="1" fill="none" fill-rule="evenodd">
        <g id="04_atoms/colors/02_neutral_colors/neutral_light_gray_2" fill="#F5F5F5">
            <rect id="Shape" x="0" y="0" width="375" height="280"></rect>
        </g>
        <g id="Group-79" transform="translate(40.000000, 32.000000)">
            <path d="M44.522,63.1484 L42.231,24.0394 C42.231,18.0194 37.875,13.1384 32.504,13.1384 L27.507,13.1384 L27.507,83.7834 C27.152,83.0954 20.894,70.8994 20.894,70.8994 C19.517,68.7654 17.458,65.0434 14.322,63.6124 C11.255,62.2144 7.901,62.4054 5.467,63.1964 C3.033,63.9934 -7.10542736e-15,65.3504 -7.10542736e-15,65.3504 C0.743,68.1314 13.382,90.2804 13.382,90.2804 C13.382,90.2804 27.207,114.3444 27.268,128.7014 C27.336,144.2644 66.814,148.9414 73.924,132.1094 C75.751,127.7804 82.95,120.7114 83.959,114.8624 C86.733,98.7604 86.842,82.8634 87.6060015,77.3274 C87.613,77.3274 62.833,67.4434 44.522,63.1484" id="Fill-1" fill="#F48C00"></path>
            <polygon id="Fill-3" fill="#F48C00" points="73.9375 132.1097 27.2745 128.7007 27.2745 176.7207 73.9375 176.7207"></polygon>
            <polygon id="Fill-5" fill="#F07500" points="43.1245 134.8365 27.2745 128.7015 27.2745 176.7205 43.1245 176.7205"></polygon>
            <path d="M82.3497,100.4718 L84.9877,99.1428 L87.6127,77.3348 C87.6257,77.2118 88.4507,74.2398 86.3787,71.6148 C84.6877,69.4678 80.8637,69.2158 80.8637,69.2158 C77.5027,69.2158 74.7757,71.9428 74.7757,75.3028 L74.7757,92.9048 C74.7757,97.0838 78.1637,100.4718 82.3497,100.4718" id="Fill-7" fill="#F48C00"></path>
            <path d="M68.0817,97.7177 L75.9757,97.7177 L75.9757,70.4497 C75.9757,66.1137 72.4587,62.5967 68.1227,62.5967 C63.7867,62.5967 60.2696895,66.1137 60.2696895,70.4497 L60.2696895,87.1717 C60.2627,91.4937 63.7667,97.7177 68.0817,97.7177" id="Fill-9" fill="#F48C00"></path>
            <path d="M52.0616,97.3223 L60.9166,97.3223 C61.0736,97.3223 61.2036,97.1923 61.2036,97.0363 L61.2036,66.0933 C61.2036,61.3763 57.3786,57.5583 52.6686,57.5583 C47.9506,57.5583 44.1335897,61.3833 44.1335897,66.0933 L44.1335897,86.6603 C44.1266,91.0433 47.6786,97.3223 52.0616,97.3223" id="Fill-11" fill="#F48C00"></path>
            <path d="M10.5321,78.589 C6.0871,70.299 0.0061,65.35 0.0061,65.35 C5.4401,76.333 13.3881,90.28 13.3881,90.28 C13.3881,90.28 27.2131,114.344 27.2751,128.701 C27.3431,144.264 43.1241,153.106 43.1241,134.836 C43.1241,126.561 32.2921,118.823 26.2931,107.071 C20.3081,95.318 11.8271,81.002 10.5321,78.589" id="Fill-13" fill="#F07500"></path>
            <path d="M32.7012,78.5004 L32.2242,25.7914 C31.9032,14.0934 27.5131933,13.1384 27.5131933,13.1384 L27.5131933,96.6744 C27.5062,96.6744 32.9802,93.1574 32.7012,78.5004" id="Fill-15" fill="#F07500"></path>
            <path d="M73.9375,176.7204 L73.9375,132.1094 C75.7645,127.7804 82.9635,120.7114 83.9725,114.8624 C86.7465,98.7604 86.8555,82.8634 87.6195,77.3274 C87.6325,77.2054 88.1305,74.4644 86.3855,71.6084 C84.6885,68.8334 80.8705,69.2084 80.8705,69.2084 C78.8665,69.2084 77.0935,70.1834 75.9825,71.6764 L75.9825,70.7014 C75.9825,66.5164 72.8125,62.8754 68.6335,62.6164 C65.4365,62.4124 62.6145,64.1304 61.2105,66.7274 L61.2105,66.3864 C61.2105,61.5124 57.2625,57.5654 52.3885,57.5654 C48.7625,57.5654 45.6875,59.9104 44.5835,63.1624 C44.5495,63.1554 44.5625,63.1624 44.5285,63.1554 L42.2385,24.0454 C42.2385,18.0264 37.8825,13.1454 32.5105,13.1454 L27.5135,13.1454 L27.5135,83.7904 C27.1585,83.1014 20.9005,70.9064 20.9005,70.9064 C19.5235,68.7724 17.4655,65.0504 14.3295,63.6184 C11.2615,62.2214 7.9075,62.4124 5.4735,63.2034 C3.0405,64.0004 0.0065,65.3574 0.0065,65.3574 C0.7495,68.1384 13.3885,90.2874 13.3885,90.2874 C13.3885,90.2874 27.2135,114.3514 27.2745,128.7084 L27.2745,176.7274" id="Stroke-17" stroke="#424445" stroke-width="4" stroke-linecap="round" stroke-linejoin="round"></path>
            <line x1="27.5066" y1="83.7836" x2="27.5066" y2="98.5766" id="Stroke-19" stroke="#424445" stroke-width="4" stroke-linecap="round" stroke-linejoin="round"></line>
            <line x1="59.874" y1="72.0242" x2="61.203" y2="66.7202" id="Stroke-21" stroke="#424445" stroke-width="4" stroke-linecap="round" stroke-linejoin="round"></line>
            <line x1="74.776" y1="75.7804" x2="75.976" y2="71.6764" id="Stroke-23" stroke="#424445" stroke-width="4" stroke-linecap="round" stroke-linejoin="round"></line>
            <path d="M244.4317,21.9707 L131.8087,21.9707 L131.8087,116.9487 L114.7077,116.9487 L131.8087,135.4737 L131.8087,174.0987 L268.7387,174.0987 L268.7387,46.2777 C268.7387,32.8537 257.8557,21.9707 244.4317,21.9707 Z" id="Stroke-25" stroke="#424445" stroke-width="4" stroke-linecap="round" stroke-linejoin="round"></path>
            <g id="Group-30" transform="translate(265.134300, 0.000000)">
                <line x1="0" y1="13.082" x2="2.691" y2="0" id="Fill-27" fill="#F48C00"></line>
                <line x1="0" y1="13.082" x2="2.691" y2="0" id="Stroke-29" stroke="#F48C00" stroke-width="4" stroke-linecap="round" stroke-linejoin="round"></line>
            </g>
            <g id="Group-34" transform="translate(275.829500, 2.135600)">
                <line x1="0" y1="16.002" x2="15.983" y2="0" id="Fill-31" fill="#F48C00"></line>
                <line x1="0" y1="16.002" x2="15.983" y2="0" id="Stroke-33" stroke="#F48C00" stroke-width="4" stroke-linecap="round" stroke-linejoin="round"></line>
            </g>
            <g id="Group-38" transform="translate(280.578700, 27.314200)">
                <line x1="0" y1="2.184" x2="13.75" y2="-2.84217094e-14" id="Fill-35" fill="#F48C00"></line>
                <line x1="0" y1="2.184" x2="13.75" y2="-2.84217094e-14" id="Stroke-37" stroke="#F48C00" stroke-width="4" stroke-linecap="round" stroke-linejoin="round"></line>
            </g>
            <path d="M236.7287,152.0305 C236.7287,155.2605 220.5457,157.8785 200.5837,157.8785 C180.6217,157.8785 164.4397,155.2605 164.4397,152.0305 C164.4397,148.8005 180.6217,146.1825 200.5837,146.1825 C220.5457,146.1825 236.7287,148.8005 236.7287,152.0305" id="Fill-39" fill="#D9D9D9"></path>
            <path d="M146.8439,98.0348 C146.8439,68.5408 170.7539,44.6308 200.2479,44.6308 C229.7419,44.6308 253.6509,68.5408 253.6509,98.0348 C253.6509,127.5288 229.7419,151.4388 200.2479,151.4388 C170.7539,151.4388 146.8439,127.5288 146.8439,98.0348" id="Fill-41" fill="#57595B"></path>
            <path d="M146.8439,98.0348 C146.8439,68.5408 170.7539,44.6308 200.2479,44.6308 C229.7419,44.6308 253.6509,68.5408 253.6509,98.0348 C253.6509,127.5288 229.7419,151.4388 200.2479,151.4388 C170.7539,151.4388 146.8439,127.5288 146.8439,98.0348 Z" id="Stroke-43" stroke="#424445" stroke-width="4"></path>
            <path d="M158.2338,98.0348 C158.2338,74.8308 177.0438,56.0208 200.2478,56.0208 C223.4508,56.0208 242.2618,74.8308 242.2618,98.0348 C242.2618,121.2388 223.4508,140.0488 200.2478,140.0488 C177.0438,140.0488 158.2338,121.2388 158.2338,98.0348" id="Fill-45" fill="#F1F2F3"></path>
            <path d="M158.2338,98.0348 C158.2338,74.8308 177.0438,56.0208 200.2478,56.0208 C223.4508,56.0208 242.2618,74.8308 242.2618,98.0348 C242.2618,121.2388 223.4508,140.0488 200.2478,140.0488 C177.0438,140.0488 158.2338,121.2388 158.2338,98.0348 Z" id="Stroke-47" stroke="#424445" stroke-width="4"></path>
            <g id="Group-52" transform="translate(199.747600, 62.225400)">
                <line x1="0.5" y1="0" x2="0.5" y2="10.364" id="Fill-49" fill="#F1F2F3"></line>
                <line x1="0.5" y1="0" x2="0.5" y2="10.364" id="Stroke-51" stroke="#D3D6D9" stroke-width="4" stroke-linecap="round"></line>
            </g>
            <g id="Group-56" transform="translate(224.770600, 96.612400)">
                <line x1="10.364" y1="0.5" x2="0" y2="0.5" id="Fill-53" fill="#F1F2F3"></line>
                <line x1="10.364" y1="0.5" x2="0" y2="0.5" id="Stroke-55" stroke="#D3D6D9" stroke-width="4" stroke-linecap="round"></line>
            </g>
            <g id="Group-60" transform="translate(165.360600, 96.612400)">
                <line x1="10.364" y1="0.5" x2="2.84217094e-14" y2="0.5" id="Fill-57" fill="#F1F2F3"></line>
                <line x1="10.364" y1="0.5" x2="2.84217094e-14" y2="0.5" id="Stroke-59" stroke="#D3D6D9" stroke-width="4" stroke-linecap="round"></line>
            </g>
            <path d="M210.7095,125.6289 L190.1975,125.6289 C189.0665,125.6289 188.1495,124.7119 188.1495,123.5809 L188.1495,115.7159 C188.1495,114.5849 189.0665,113.6679 190.1975,113.6679 L210.7095,113.6679 C211.8405,113.6679 212.7575,114.5849 212.7575,115.7159 L212.7575,123.5809 C212.7575,124.7119 211.8405,125.6289 210.7095,125.6289" id="Fill-61" fill="#FFFFFF"></path>
            <path d="M210.7095,125.6289 L190.1975,125.6289 C189.0665,125.6289 188.1495,124.7119 188.1495,123.5809 L188.1495,115.7159 C188.1495,114.5849 189.0665,113.6679 190.1975,113.6679 L210.7095,113.6679 C211.8405,113.6679 212.7575,114.5849 212.7575,115.7159 L212.7575,123.5809 C212.7575,124.7119 211.8405,125.6289 210.7095,125.6289 Z" id="Stroke-63" stroke="#C7CCD1" stroke-width="4"></path>
            <path d="M194.8862,97.1124 C194.8862,94.0374 197.3792,91.5454 200.4532,91.5454 C203.5282,91.5454 206.0212,94.0374 206.0212,97.1124 C206.0212,100.1874 203.5282,102.6794 200.4532,102.6794 C197.3792,102.6794 194.8862,100.1874 194.8862,97.1124" id="Fill-65" fill="#F48C00"></path>
            <path d="M194.8862,97.1124 C194.8862,94.0374 197.3792,91.5454 200.4532,91.5454 C203.5282,91.5454 206.0212,94.0374 206.0212,97.1124 C206.0212,100.1874 203.5282,102.6794 200.4532,102.6794 C197.3792,102.6794 194.8862,100.1874 194.8862,97.1124 Z" id="Stroke-67" stroke="#F48C00" stroke-width="4" stroke-linecap="round" stroke-linejoin="round"></path>
            <polygon id="Fill-69" fill="#F48C00" points="199.7762 93.9466 225.4272 76.9736 203.8602 99.1156"></polygon>
            <polygon id="Stroke-71" stroke="#F48C00" stroke-width="4" stroke-linecap="round" stroke-linejoin="round" points="199.7762 93.9466 225.4272 76.9736 203.8602 99.1156"></polygon>
            <path d="M161.2096,113.8563 L206.1726,56.4313 C205.6536,56.4793 205.1236,56.5103 204.5736,56.5103 C202.6176,56.5103 200.8706,56.1893 199.3126,55.6353 C198.4706,55.5833 197.6546,55.4933 196.8906,55.3293 L157.7566,105.3103 C158.2506,106.3523 158.6126,107.4573 158.8716,108.5893 C159.9816,110.1643 160.7586,111.9643 161.2096,113.8563" id="Fill-73" fill="#FFFFFF"></path>
            <path d="M240.2826,86.7248 C238.2566,84.2628 237.1106,81.1388 236.8866,77.9178 C235.3356,76.3208 234.2126,74.3678 233.5286,72.2498 L182.9326,136.8678 C184.9126,137.2458 186.6226,137.9878 188.0796,138.9848 C190.0476,139.1208 191.8026,139.5718 193.3306,140.2868 C193.7666,140.3118 194.1956,140.3478 194.6126,140.3998 C195.7906,140.1168 197.0556,139.9488 198.4296,139.9488 C200.5816,139.9488 202.4786,140.3388 204.1496,141.0008 L241.9666,92.7028 C241.0286,90.8568 240.4606,88.8138 240.2826,86.7248" id="Fill-75" fill="#FFFFFF"></path>
            <path d="M158.2338,98.0348 C158.2338,74.8308 177.0438,56.0208 200.2478,56.0208 C223.4508,56.0208 242.2618,74.8308 242.2618,98.0348 C242.2618,121.2388 223.4508,140.0488 200.2478,140.0488 C177.0438,140.0488 158.2338,121.2388 158.2338,98.0348 Z" id="Stroke-77" stroke="#424445" stroke-width="4"></path>
        </g>
    </g>
</svg>