<?xml version="1.0" encoding="UTF-8"?>
<svg width="375px" height="240px" viewBox="0 0 375 240" version="1.1" xmlns="http://www.w3.org/2000/svg" xmlns:xlink="http://www.w3.org/1999/xlink">
    <title>hdpi/lock</title>
    <defs>
        <polygon id="path-1" points="0 0 96.7539 0 96.7539 9.548 0 9.548"></polygon>
        <path d="M0,32.093 L0,58.513 L64.187,58.513 L64.187,32.093 C64.187,14.397 49.791,0 32.093,0 L32.093,0 C14.398,0 0,14.397 0,32.093 M9.879,32.093 C9.879,19.844 19.844,9.879 32.093,9.879 L32.093,9.879 C44.344,9.879 54.309,19.844 54.309,32.093 L54.309,32.093 L54.309,48.634 L9.879,48.634" id="path-3"></path>
        <path d="M0,32.093 L0,58.513 L64.187,58.513 L64.187,32.093 C64.187,14.397 49.791,0 32.093,0 L32.093,0 C14.398,0 0,14.397 0,32.093 M9.879,32.093 C9.879,19.844 19.844,9.879 32.093,9.879 L32.093,9.879 C44.344,9.879 54.309,19.844 54.309,32.093 L54.309,32.093 L54.309,48.634 L9.879,48.634" id="path-5"></path>
        <polygon id="path-7" points="-1.42108547e-14 1.42108547e-14 127.4749 1.42108547e-14 127.4749 13.561 -1.42108547e-14 13.561"></polygon>
    </defs>
    <g id="lock" stroke="none" stroke-width="1" fill="none" fill-rule="evenodd">
        <g id="04_atoms/colors/02_neutral_colors/neutral_light_gray_2" fill="#F5F5F5">
            <rect id="Shape" x="0" y="0" width="375" height="280"></rect>
        </g>
        <g id="Group-56" transform="translate(86.000000, 21.000000)">
            <g id="Group-18">
                <g id="Group-3" transform="translate(0.000000, 139.003500)">
                    <mask id="mask-2" fill="white">
                        <use xlink:href="#path-1"></use>
                    </mask>
                    <g id="Clip-2"></g>
                    <path d="M92.1729,9.548 L4.5809,9.548 C2.0509,9.548 -0.0001,7.497 -0.0001,4.967 L-0.0001,4.581 C-0.0001,2.051 2.0509,0 4.5809,0 L92.1729,0 C94.7029,0 96.7539,2.051 96.7539,4.581 L96.7539,4.967 C96.7539,7.497 94.7029,9.548 92.1729,9.548" id="Fill-1" fill="#D9D9D9" mask="url(#mask-2)"></path>
                </g>
                <g id="Group-7" transform="translate(153.002200, 41.447000)">
                    <line x1="0" y1="10.836" x2="2.229" y2="0" id="Fill-4" fill="#F48C00"></line>
                    <line x1="0" y1="10.836" x2="2.229" y2="0" id="Stroke-6" stroke="#F48C00" stroke-width="4" stroke-linecap="round" stroke-linejoin="round"></line>
                </g>
                <g id="Group-11" transform="translate(161.860600, 43.216300)">
                    <line x1="0" y1="13.254" x2="13.238" y2="0" id="Fill-8" fill="#F48C00"></line>
                    <line x1="0" y1="13.254" x2="13.238" y2="0" id="Stroke-10" stroke="#F48C00" stroke-width="4" stroke-linecap="round" stroke-linejoin="round"></line>
                </g>
                <g id="Group-15" transform="translate(165.794100, 64.070800)">
                    <line x1="0" y1="1.809" x2="11.389" y2="-2.84217094e-14" id="Fill-12" fill="#F48C00"></line>
                    <line x1="0" y1="1.809" x2="11.389" y2="-2.84217094e-14" id="Stroke-14" stroke="#F48C00" stroke-width="4" stroke-linecap="round" stroke-linejoin="round"></line>
                </g>
                <path d="M35.0491,48.635 L79.4791,48.635 L79.4791,32.094 C79.4791,19.845 69.5141,9.879 57.2641,9.879 C45.0141,9.879 35.0491,19.845 35.0491,32.094 L35.0491,48.635 Z M89.3581,58.514 L25.1701,58.514 L25.1701,32.094 C25.1701,14.397 39.5671,0 57.2641,0 C74.9611,0 89.3581,14.397 89.3581,32.094 L89.3581,58.514 Z" id="Fill-16" fill="#D3D6D9"></path>
            </g>
            <g id="Group-25" transform="translate(25.170000, 0.000500)">
                <g id="Group-21">
                    <mask id="mask-4" fill="white">
                        <use xlink:href="#path-3"></use>
                    </mask>
                    <g id="Clip-20"></g>
                    <path d="M5.3888,32.0937 L5.3888,48.6347 L8.0828,48.6347 L8.0828,32.0937 C8.0828,20.2967 17.3268,10.6227 28.9508,9.9237 C28.5048,9.8967 28.0558,9.8787 27.6038,9.8787 C15.3538,9.8787 5.3888,19.8437 5.3888,32.0937" id="Fill-19" fill="#BCC1C5" mask="url(#mask-4)"></path>
                </g>
                <g id="Group-24">
                    <mask id="mask-6" fill="white">
                        <use xlink:href="#path-5"></use>
                    </mask>
                    <g id="Clip-23"></g>
                    <path d="M30.2976,0 C29.8456,0 29.3976,0.016 28.9506,0.034 C46.0246,0.743 59.6976,14.849 59.6976,32.094 L59.6976,58.513 L62.3916,58.513 L62.3916,32.094 C62.3916,14.397 47.9946,0 30.2976,0" id="Fill-22" fill="#BCC1C5" mask="url(#mask-6)"></path>
                </g>
            </g>
            <g id="Group-55" transform="translate(11.334600, 0.000000)">
                <path d="M23.7145,48.635 L68.1445,48.635 L68.1445,32.094 C68.1445,19.845 58.1795,9.879 45.9295,9.879 C33.6795,9.879 23.7145,19.845 23.7145,32.094 L23.7145,48.635 Z M78.0235,58.514 L13.8355,58.514 L13.8355,32.094 C13.8355,14.397 28.2325,0 45.9295,0 C63.6265,0 78.0235,14.397 78.0235,32.094 L78.0235,58.514 Z" id="Stroke-26" stroke="#424445" stroke-width="4"></path>
                <path d="M13.3141,142.2366 C7.0751,142.2366 2.0001,137.1616 2.0001,130.9236 L2.0001,50.6516 C2.0001,49.5476 2.8951,48.6516 4.0001,48.6516 L78.5361,48.6516 C84.7801,48.6516 89.8591,53.7316 89.8591,59.9756 L89.8591,140.2366 C89.8591,141.3406 88.9641,142.2366 87.8591,142.2366 L13.3141,142.2366 Z" id="Fill-28" fill="#F1F2F3"></path>
                <path d="M78.536,46.652 L4,46.652 C1.791,46.652 0,48.443 0,50.652 L0,130.923 C0,138.264 5.973,144.237 13.314,144.237 L87.859,144.237 C90.068,144.237 91.859,142.446 91.859,140.237 L91.859,59.976 C91.859,52.629 85.883,46.652 78.536,46.652 L78.536,46.652 Z M78.536,50.652 C83.685,50.652 87.859,54.827 87.859,59.976 L87.859,140.237 L13.314,140.237 C8.17,140.237 4,136.067 4,130.923 L4,50.652 L78.536,50.652 Z" id="Fill-30" fill="#424445"></path>
                <path d="M73.6294,50.652 L20.9534,50.652 L20.9534,140.237 L73.6404,140.237 L73.6404,50.663 C73.6404,50.657 73.6354,50.652 73.6294,50.652" id="Fill-32" fill="#D3D6D9"></path>
                <path d="M3.9998,50.652 L3.9998,130.923 C3.9998,136.067 8.1698,140.237 13.3138,140.237 L20.9538,140.237 L20.9538,50.652 L3.9998,50.652 Z" id="Fill-34" fill="#FFFFFF"></path>
                <path d="M78.5359,50.652 L73.6299,50.652 C73.6349,50.652 73.6399,50.657 73.6399,50.663 L73.6399,140.237 L87.8589,140.237 L87.8589,59.976 C87.8589,54.827 83.6849,50.652 78.5359,50.652" id="Fill-36" fill="#B5B8BB"></path>
                <path d="M58.7269,90.6192 C58.7269,97.6872 52.9969,103.4162 45.9299,103.4162 C38.8619,103.4162 33.1319,97.6872 33.1319,90.6192 C33.1319,83.5512 38.8619,77.8222 45.9299,77.8222 C52.9969,77.8222 58.7269,83.5512 58.7269,90.6192" id="Fill-38" fill="#424445"></path>
                <path d="M46.2808,121.3776 L45.5788,121.3776 C42.9798,121.3776 40.8738,119.2716 40.8738,116.6726 L40.8738,98.0286 L50.9858,98.0286 L50.9858,116.6726 C50.9858,119.2716 48.8788,121.3776 46.2808,121.3776" id="Fill-40" fill="#424445"></path>
                <g id="Group-44" transform="translate(63.394500, 183.631500)">
                    <mask id="mask-8" fill="white">
                        <use xlink:href="#path-7"></use>
                    </mask>
                    <g id="Clip-43"></g>
                    <path d="M120.694,13.561 L6.781,13.561 C3.036,13.561 -1.42108547e-14,10.525 -1.42108547e-14,6.78 L-1.42108547e-14,6.78 C-1.42108547e-14,3.036 3.036,1.42108547e-14 6.781,1.42108547e-14 L120.694,1.42108547e-14 C124.439,1.42108547e-14 127.475,3.036 127.475,6.78 L127.475,6.78 C127.475,10.525 124.439,13.561 120.694,13.561" id="Fill-42" fill="#D9D9D9" mask="url(#mask-8)"></path>
                </g>
                <path d="M67.4071,166.475 L113.2251,70.93 C118.9141,59.069 135.8021,59.069 141.4901,70.93 L187.3091,166.475 C192.2981,176.879 184.7151,188.925 173.1761,188.925 L81.5391,188.925 C70.0011,188.925 62.4181,176.879 67.4071,166.475" id="Fill-45" fill="#F48C00"></path>
                <path d="M67.4071,166.475 L113.2251,70.93 C118.9141,59.069 135.8021,59.069 141.4901,70.93 L187.3091,166.475 C192.2981,176.879 184.7151,188.925 173.1761,188.925 L81.5391,188.925 C70.0011,188.925 62.4181,176.879 67.4071,166.475 Z" id="Stroke-47" stroke="#424445" stroke-width="4"></path>
                <path d="M135.5472,116.33 L135.5472,152.508003 C127.7142,152.513 121.1712,146.542 120.4622,138.742 L120.4622,116.33 L135.5472,116.33 Z" id="Fill-49" fill="#FFFFFF"></path>
                <path d="M120.4619,123.9129 L120.4619,91.4928969 C128.2949,91.4879 134.8379,97.4589 135.5469,105.2589 L135.5469,123.9129 L120.4619,123.9129 Z" id="Fill-51" fill="#FFFFFF"></path>
                <path d="M118.8864,166.9544 C118.8864,162.2754 122.6794,158.4824 127.3584,158.4824 C132.0364,158.4824 135.8294,162.2754 135.8294,166.9544 C135.8294,171.6334 132.0364,175.4264 127.3584,175.4264 C122.6794,175.4264 118.8864,171.6334 118.8864,166.9544" id="Fill-53" fill="#FFFFFF"></path>
            </g>
        </g>
    </g>
</svg>