<?xml version="1.0" encoding="UTF-8"?>
<svg width="375px" height="240px" viewBox="0 0 375 240" version="1.1" xmlns="http://www.w3.org/2000/svg" xmlns:xlink="http://www.w3.org/1999/xlink">
    <title>hdpi/mercury_v2_plus</title>
    <defs>
        <polygon id="path-1" points="0 0 63.7839 0 63.7839 16.3306 0 16.3306"></polygon>
    </defs>
    <g id="mercury_v2_plus" stroke="none" stroke-width="1" fill="none" fill-rule="evenodd">
        <g id="04_atoms/colors/02_neutral_colors/neutral_light_gray_2" fill="#F5F5F5">
            <rect id="Shape" x="0" y="0" width="375" height="280"></rect>
        </g>
        <g id="Group-22" transform="translate(154.000000, 34.000000)">
            <g id="Group-3" transform="translate(0.000000, 156.429500)">
                <mask id="mask-2" fill="white">
                    <use xlink:href="#path-1"></use>
                </mask>
                <g id="Clip-2"></g>
                <path d="M56.3079,0 L20.3049,0 L17.2209,0 L7.4759,0 C3.3469,0 -0.0001,3.656 -0.0001,8.165 L-0.0001,8.165 C-0.0001,12.675 3.3469,16.331 7.4759,16.331 L20.5819,16.331 C20.5739,15.986 20.5689,15.642 20.5619,15.298 C20.5809,15.642 20.5889,15.986 20.5819,16.331 L56.3079,16.331 C60.4369,16.331 63.7839,12.675 63.7839,8.165 L63.7839,8.165 C63.7839,3.656 60.4369,0 56.3079,0" id="Fill-1" fill="#D9D9D9" mask="url(#mask-2)"></path>
            </g>
            <path d="M54.1026,163.028 L7.2906,163.028 L7.2906,0 L42.0776,0 C48.7186,0 54.1026,5.383 54.1026,12.024 L54.1026,163.028 Z" id="Fill-4" fill="#666666"></path>
            <path d="M54.1026,163.028 L7.2906,163.028 L7.2906,0 L42.0776,0 C48.7186,0 54.1026,5.383 54.1026,12.024 L54.1026,163.028 Z" id="Stroke-6" stroke="#424445" stroke-width="4" stroke-linecap="round" stroke-linejoin="round"></path>
            <path d="M43.4351,153.8936 L17.9211,153.8936 C16.3611,153.8936 15.0971,152.6296 15.0971,151.0696 L15.0971,13.2486 C15.0971,11.6896 16.3611,10.4246 17.9211,10.4246 L43.4351,10.4246 C44.9951,10.4246 46.2591,11.6896 46.2591,13.2486 L46.2591,151.0696 C46.2591,152.6296 44.9951,153.8936 43.4351,153.8936" id="Fill-8" fill="#4D4D4D"></path>
            <path d="M43.4351,153.8936 L17.9211,153.8936 C16.3611,153.8936 15.0971,152.6296 15.0971,151.0696 L15.0971,13.2486 C15.0971,11.6896 16.3611,10.4246 17.9211,10.4246 L43.4351,10.4246 C44.9951,10.4246 46.2591,11.6896 46.2591,13.2486 L46.2591,151.0696 C46.2591,152.6296 44.9951,153.8936 43.4351,153.8936 Z" id="Stroke-10" stroke="#424445" stroke-width="4"></path>
            <path d="M63.4534,151.0587 L54.1024,151.0587 L54.1024,111.9817 L63.4534,111.9817 C65.1104,111.9817 66.4534,113.3247 66.4534,114.9817 L66.4534,148.0587 C66.4534,149.7157 65.1104,151.0587 63.4534,151.0587" id="Fill-12" fill="#F48C00"></path>
            <path d="M63.4534,151.0587 L54.1024,151.0587 L54.1024,111.9817 L63.4534,111.9817 C65.1104,111.9817 66.4534,113.3247 66.4534,114.9817 L66.4534,148.0587 C66.4534,149.7157 65.1104,151.0587 63.4534,151.0587 Z" id="Stroke-14" stroke="#424445" stroke-width="4"></path>
            <path d="M48.7084,3.8887 C47.2684,2.7117 45.1484,1.4267 42.7344,1.4267 L8.8524,1.4267 L8.8524,3.8887 L48.7084,3.8887 Z" id="Fill-16" fill="#808080"></path>
            <path d="M43.4351,153.8936 L17.9211,153.8936 C16.3611,153.8936 15.0971,152.6296 15.0971,151.0696 L15.0971,13.2486 C15.0971,11.6896 16.3611,10.4246 17.9211,10.4246 L43.4351,10.4246 C44.9951,10.4246 46.2591,11.6896 46.2591,13.2486 L46.2591,151.0696 C46.2591,152.6296 44.9951,153.8936 43.4351,153.8936 Z" id="Stroke-18" stroke="#424445" stroke-width="4"></path>
            <path d="M54.1049,163.028 L7.2929,163.028 L7.2929,0 L42.0799,0 C48.7209,0 54.1049,5.383 54.1049,12.024 L54.1049,163.028 Z" id="Stroke-20" stroke="#424445" stroke-width="4" stroke-linecap="round" stroke-linejoin="round"></path>
        </g>
    </g>
</svg>