<?xml version="1.0" encoding="UTF-8"?>
<svg width="375px" height="240px" viewBox="0 0 375 240" version="1.1" xmlns="http://www.w3.org/2000/svg" xmlns:xlink="http://www.w3.org/1999/xlink">
    <title>hdpi/nothing_to_see_here</title>
    <g id="nothing_to_see_here" stroke="none" stroke-width="1" fill="none" fill-rule="evenodd">
        <g id="04_atoms/colors/02_neutral_colors/neutral_light_gray_2" fill="#F5F5F5">
            <rect id="Shape" x="0" y="0" width="375" height="280"></rect>
        </g>
        <g id="Group-45" transform="translate(104.000000, 35.000000)">
            <path d="M59.0048,102.601 L0.0078,102.601 L0.0078,165.106 L59.0048,165.106 L130.2798,165.451 C130.2798,165.451 143.0638,167.003 143.5958,162.795 C144.1178,158.663 138.5438,155.593 138.8388,150.061 C140.0788,126.466 138.9738,90.441 138.9738,90.441 L59.0048,102.601 Z" id="Fill-1" fill="#F48C00"></path>
            <path d="M60.5902,102.5167 C73.5352,92.5657 83.5112,87.8017 95.0472,77.5467 C106.5832,67.2927 102.8812,46.9267 102.8812,46.9267 L103.1682,34.9357 L111.8702,35.0197 C114.5442,34.9357 117.4952,35.7197 120.4472,37.8027 C124.2252,40.4757 126.7632,46.9267 126.6622,56.4057 C126.5612,65.8837 125.3292,67.3937 125.8782,79.7987 C126.3832,91.2077 152.3992,89.3527 152.3992,89.3527 C152.3992,89.3527 124.8492,136.8977 95.8732,134.8907 C75.7782,133.4997 65.6502,141.5277 65.6502,141.5277 C65.6502,141.5277 44.2552,115.0817 60.5902,102.5167" id="Fill-3" fill="#F48C00"></path>
            <path d="M111.4828,161.9434 L111.4828,167.7954 L148.0818,169.8534 C153.9598,170.1824 157.5858,165.2914 157.5858,160.8974 L157.5858,160.0034 C157.5858,155.6014 153.1838,152.0434 147.7528,152.0434 L123.7278,152.0434 C116.9558,152.0434 111.4828,156.4704 111.4828,161.9434" id="Fill-5" fill="#F48C00"></path>
            <path d="M111.4828,141.5526 L111.4828,152.0436 L152.5008,152.0436 C158.0828,152.0436 162.6118,147.5146 162.6118,141.9316 L162.6118,141.5946 C162.6118,136.0126 158.0828,131.4836 152.5008,131.4836 L121.5438,131.4836 C115.9858,131.4926 111.4828,135.9956 111.4828,141.5526" id="Fill-7" fill="#F48C00"></path>
            <path d="M111.4828,101.1843 L111.4828,109.9043 L149.9198,109.9043 C156.9278,109.9043 162.6118,105.2993 162.6118,99.6323 C162.6118,93.9573 157.5858,89.3613 149.9198,89.3613 L124.1148,90.9633 C116.0618,91.5453 111.4828,95.5343 111.4828,101.1843" id="Fill-9" fill="#F48C00"></path>
            <path d="M111.3479,119.7451 L111.3479,131.4921 L156.2449,131.4921 C162.1059,131.4921 166.8619,126.7361 166.8619,120.8751 L166.8619,120.5211 C166.8619,114.6601 162.1059,109.9041 156.2449,109.9041 L121.1889,109.9041 C115.7589,109.9041 111.3479,114.3061 111.3479,119.7451" id="Fill-11" fill="#F48C00"></path>
            <path d="M107.317,59.104 C107.351,56.068 107.916,40.813 107.916,40.813 C107.916,36.554 103.168,34.935 103.168,34.935 C103.168,34.935 102.696,51.422 102.375,58.75 C102.055,66.078 95.039,76.94 89.92,79.79 C73.754,88.796 66.662,88.99 60.59,102.517 C60.582,102.542 60.556,102.55 60.531,102.559 L58.996,102.601 L0,102.601 L0,120.841 L63.213,120.841 C63.213,120.841 70.406,97.238 89.001,88.923 C104.02,82.202 107.207,68.583 107.317,59.104" id="Fill-13" fill="#F07500"></path>
            <path d="M111.4828,160.3411 L111.4828,167.7961 L125.5488,168.7911 C125.5488,168.7911 125.5068,164.0091 125.5068,162.6601 C125.5068,162.0021 125.4988,158.2331 129.6138,158.1911 C133.7368,158.1401 145.8978,158.3931 145.8978,158.3931 C154.2128,158.5281 155.8988,155.5431 155.8988,155.5431 C154.1278,153.4261 151.1348,152.0351 147.7448,152.0351 L123.7188,150.4321 C116.9558,150.4411 111.4828,154.8761 111.4828,160.3411" id="Fill-15" fill="#F07500"></path>
            <path d="M111.4828,144.7318 L111.4828,152.0428 L126.1898,152.0428 L126.1898,143.3408 C126.1898,143.3408 126.0298,138.9638 131.7978,138.7948 C137.5658,138.6268 146.4368,138.6598 152.4078,138.5508 C157.5768,138.4578 160.4438,136.0208 160.4438,136.0208 C158.1678,133.2888 154.3048,131.4918 149.9198,131.4918 L124.1148,131.4918 C115.7418,131.4918 111.4828,137.3108 111.4828,144.7318" id="Fill-17" fill="#F07500"></path>
            <path d="M111.3479,119.6861 L111.3479,131.4921 L127.3709,131.4921 L127.3709,123.1011 C127.3709,123.1011 126.5529,116.0681 136.7229,116.0941 L152.4079,115.8911 C159.5249,116.0771 163.7839,113.6561 163.7839,113.6561 C161.3969,111.3711 157.8219,109.912089 153.8329,109.912089 L123.4319,109.912089 C116.7539,109.9041 111.3479,114.2801 111.3479,119.6861" id="Fill-19" fill="#F07500"></path>
            <path d="M111.4828,101.1843 L111.4828,109.9043 L128.1718,109.9043 L128.1718,99.6323 C128.1718,99.6323 128.3318,94.8263 134.1838,94.6993 C137.1528,94.6323 147.5838,94.5223 147.5838,94.5223 C153.6478,94.3963 157.4418,90.7523 157.4418,90.7523 C155.5698,89.8673 152.4668,89.3613 149.9198,89.3613 C149.9198,89.3613 141.0568,90.9213 134.9098,90.9213 C128.7618,90.9213 124.1148,90.9633 124.1148,90.9633 C116.0618,91.5453 111.4828,95.5343 111.4828,101.1843" id="Fill-21" fill="#F07500"></path>
            <path d="M0.0082,165.1057 L59.0052,165.1057 L111.4832,165.3587 L111.4832,167.8047 L148.0812,169.8617 C153.9592,170.1907 157.5852,165.2997 157.5852,160.9057 L157.5852,160.0037 C157.5852,155.6017 153.1832,152.0427 147.7532,152.0427 L152.5092,152.0427 C158.0912,152.0427 162.6202,147.5147 162.6202,141.9317 L162.6202,141.5947 C162.6202,136.0117 158.0912,131.4837 152.5172,131.4837 L156.2612,131.4837 C162.1222,131.4837 166.8782,126.7277 166.8782,120.8667 L166.8782,120.5127 C166.8782,114.6517 162.1222,109.8957 156.2612,109.8957 L149.9282,109.8957 C156.9362,109.8957 162.6202,105.2907 162.6202,99.6237 C162.6202,94.5647 158.6232,90.0277 152.3232,89.5127 C150.5352,89.4457 148.1572,89.4537 148.1572,89.4537 C145.2902,89.4457 139.9442,89.3447 135.3392,88.9477 C129.3182,88.4257 126.1312,84.9847 125.9032,79.7897 C125.3552,67.3937 126.5862,65.8757 126.6872,56.3967 C126.7892,46.9187 124.2592,40.4587 120.4722,37.7937 C117.5212,35.7107 114.5692,34.9267 111.8962,35.0107 L103.1932,34.9267 C103.1932,34.9267 102.7212,51.4127 102.4012,58.7417 C102.0802,66.0697 97.2732,75.9447 89.9452,79.7817 C73.6112,88.3407 68.3322,88.4337 60.6832,102.3737 L59.0302,102.5927 L0.0342,102.5927" id="Stroke-23" stroke="#424445" stroke-width="4" stroke-linecap="round" stroke-linejoin="round"></path>
            <line x1="111.4828" y1="160.3411" x2="111.4828" y2="167.7961" id="Stroke-25" stroke="#424445" stroke-width="4" stroke-linecap="round" stroke-linejoin="round"></line>
            <path d="M149.9116,109.9039 L111.4746,109.9039 L111.4746,101.1839 C111.4746,101.1839 110.2936,93.1729 119.1226,91.3179" id="Stroke-27" stroke="#424445" stroke-width="4" stroke-linecap="round" stroke-linejoin="round"></path>
            <path d="M154.2124,131.4921 L111.3564,131.4921 L111.3564,122.7561 C111.3564,119.7531 112.8664,109.9121 124.5454,109.9121" id="Stroke-29" stroke="#424445" stroke-width="4" stroke-linecap="round" stroke-linejoin="round"></path>
            <path d="M154.2124,152.0432 L111.3564,152.0432 L111.3564,146.3852 C111.3564,146.3852 109.9564,131.4922 124.1154,131.4922" id="Stroke-31" stroke="#424445" stroke-width="4" stroke-linecap="round" stroke-linejoin="round"></path>
            <g id="Group-36" transform="translate(127.278200, 0.000000)">
                <line x1="0" y1="14.609" x2="2.837" y2="0" id="Fill-33" fill="#F48C00"></line>
                <line x1="0" y1="14.609" x2="2.837" y2="0" id="Stroke-35" stroke="#F48C00" stroke-width="4" stroke-linecap="round" stroke-linejoin="round"></line>
            </g>
            <g id="Group-40" transform="translate(139.256900, 2.083600)">
                <line x1="2.84217094e-14" y1="18.026" x2="17.61" y2="0" id="Fill-37" fill="#F48C00"></line>
                <line x1="2.84217094e-14" y1="18.026" x2="17.61" y2="0" id="Stroke-39" stroke="#F48C00" stroke-width="4" stroke-linecap="round" stroke-linejoin="round"></line>
            </g>
            <g id="Group-44" transform="translate(144.688700, 30.105500)">
                <line x1="0" y1="2.603" x2="15.293" y2="0" id="Fill-41" fill="#F48C00"></line>
                <line x1="0" y1="2.603" x2="15.293" y2="0" id="Stroke-43" stroke="#F48C00" stroke-width="4" stroke-linecap="round" stroke-linejoin="round"></line>
            </g>
        </g>
    </g>
</svg>