<?xml version="1.0" encoding="UTF-8"?>
<svg width="375px" height="240px" viewBox="0 0 375 240" version="1.1" xmlns="http://www.w3.org/2000/svg" xmlns:xlink="http://www.w3.org/1999/xlink">
    <title>hdpi/one_click_troubleshoot_hand</title>
    <defs>
        <path d="M2.31589538,7.365 C-0.572104619,9.713 -0.822104619,14.028 1.92189538,16.546 L1.92189538,16.546 L1.93989538,16.564 C4.07889538,18.526 7.40189538,18.777 9.61689538,16.902 L9.61689538,16.902 C13.2428954,13.835 17.9058954,11.969 23.0178954,11.969 L23.0178954,11.969 C28.1298954,11.969 32.7918954,13.834 36.4178954,16.9 L36.4178954,16.9 C38.6328954,18.774 41.9548954,18.523 44.0938954,16.561 L44.0938954,16.561 L44.1138954,16.543 C46.8558954,14.026 46.6068954,9.71 43.7178954,7.361 L43.7178954,7.361 C38.0618954,2.764 30.8598954,0 23.0178954,0 L23.0178954,0 C15.1758954,0 7.97189538,2.765 2.31589538,7.365 L2.31589538,7.365 Z" id="path-1"></path>
    </defs>
    <g id="one_click_troubleshoot_hand" stroke="none" stroke-width="1" fill="none" fill-rule="evenodd">
        <g id="04_atoms/colors/02_neutral_colors/neutral_light_gray_2" fill="#F5F5F5">
            <rect id="Shape" x="0" y="0" width="375" height="280"></rect>
        </g>
        <g id="Group-50" transform="translate(53.000000, 36.000000)">
            <g id="Group-31" transform="translate(-0.000000, 1.208000)">
                <path d="M45.529,51.14 L43.187,11.146 C43.187,4.991 38.732,0 33.239,0 L28.129,0 L28.129,72.242 C27.766,71.538 21.367,59.066 21.367,59.066 C19.959,56.884 17.853,53.078 14.647,51.614 C11.51,50.185 8.08,50.38 5.591,51.189 C3.103,52.004 0,53.392 0,53.392 C0.76,56.236 13.685,78.885 13.685,78.885 C13.685,78.885 27.822,103.493 27.885,118.175 C27.955,134.09 68.325,138.872 75.596,121.66 C77.464,117.234 84.825,110.005 85.857,104.023 C88.694,87.557 88.806,71.301 89.5870014,65.64 C89.594,65.64 64.254,55.532 45.529,51.14" id="Fill-1" fill="#F48C00"></path>
                <polygon id="Fill-3" fill="#F48C00" points="75.6096 121.6602 27.8916 118.1742 27.8916 167.2792 75.6096 167.2792"></polygon>
                <polygon id="Fill-5" fill="#F07500" points="44.0999 124.4487 27.8919 118.1747 27.8919 167.2797 44.0999 167.2797"></polygon>
                <path d="M84.212,89.3071 L86.91,87.9481 L89.594,65.6471 C89.608,65.5211 90.451,62.4821 88.332,59.7981 C86.603,57.6021 82.692,57.3441 82.692,57.3441 C79.256,57.3441 76.467,60.1331 76.467,63.5691 L76.467,81.5691 C76.467,85.8421 79.932,89.3071 84.212,89.3071" id="Fill-7" fill="#F48C00"></path>
                <path d="M69.6213,86.4907 L77.6943,86.4907 L77.6943,58.6057 C77.6943,54.1727 74.0963,50.5757 69.6633,50.5757 C65.2293,50.5757 61.6322898,54.1727 61.6322898,58.6057 L61.6322898,75.7067 C61.6253,80.1257 65.2083,86.4907 69.6213,86.4907" id="Fill-9" fill="#F48C00"></path>
                <path d="M53.2391,86.0864 L62.2951,86.0864 C62.4551,86.0864 62.5871,85.9544 62.5871,85.7934 L62.5871,54.1514 C62.5871,49.3274 58.6771,45.4234 53.8591,45.4234 C49.0351,45.4234 45.1320899,49.3344 45.1320899,54.1514 L45.1320899,75.1834 C45.1251,79.6664 48.7571,86.0864 53.2391,86.0864" id="Fill-11" fill="#F48C00"></path>
                <path d="M10.7708,66.9296 C6.2258,58.4526 0.0078,53.3916 0.0078,53.3916 C5.5638,64.6226 13.6918,78.8856 13.6918,78.8856 C13.6918,78.8856 27.8288,103.4936 27.8918,118.1746 C27.9618,134.0896 44.0998,143.1316 44.0998,124.4486 C44.0998,115.9856 33.0228,108.0736 26.8878,96.0556 C20.7678,84.0366 12.0958,69.3976 10.7708,66.9296" id="Fill-13" fill="#F07500"></path>
                <path d="M33.441,66.839 L32.953,12.938 C32.625,0.975 28.1359934,0 28.1359934,0 L28.1359934,85.424 C28.129,85.424 33.727,81.827 33.441,66.839" id="Fill-15" fill="#F07500"></path>
                <path d="M75.6096,167.2795 L75.6096,121.6605 C77.4776,117.2335 84.8396,110.0045 85.8716,104.0235 C88.7086,87.5575 88.8196,71.3005 89.6006,65.6395 C89.6146,65.5145 90.1236,62.7125 88.3386,59.7915 C86.6036,56.9535 82.6996,57.3375 82.6996,57.3375 C80.6496,57.3375 78.8376,58.3345 77.7006,59.8605 L77.7006,58.8645 C77.7006,54.5835 74.4596,50.8615 70.1856,50.5965 C66.9166,50.3875 64.0306,52.1435 62.5946,54.7995 L62.5946,54.4515 C62.5946,49.4665 58.5586,45.4305 53.5736,45.4305 C49.8646,45.4305 46.7206,47.8285 45.5916,51.1535 C45.5566,51.1465 45.5706,51.1535 45.5356,51.1465 L43.1936,11.1535 C43.1936,4.9975 38.7396,0.0065 33.2456,0.0065 L28.1356,0.0065 L28.1356,72.2485 C27.7736,71.5445 21.3736,59.0735 21.3736,59.0735 C19.9656,56.8915 17.8606,53.0845 14.6536,51.6205 C11.5166,50.1915 8.0866,50.3875 5.5986,51.1955 C3.1096,52.0115 0.0076,53.3985 0.0076,53.3985 C0.7676,56.2425 13.6916,78.8925 13.6916,78.8925 C13.6916,78.8925 27.8296,103.5005 27.8916,118.1815 L27.8916,167.2865" id="Stroke-17" stroke="#424445" stroke-width="4" stroke-linecap="round" stroke-linejoin="round"></path>
                <line x1="28.129" y1="72.2416" x2="28.129" y2="87.3686" id="Stroke-19" stroke="#424445" stroke-width="4" stroke-linecap="round" stroke-linejoin="round"></line>
                <line x1="61.2281" y1="60.2164" x2="62.5871" y2="54.7924" id="Stroke-21" stroke="#424445" stroke-width="4" stroke-linecap="round" stroke-linejoin="round"></line>
                <line x1="76.467" y1="64.0575" x2="77.694" y2="59.8605" id="Stroke-23" stroke="#424445" stroke-width="4" stroke-linecap="round" stroke-linejoin="round"></line>
                <path d="M191.7951,114.3155 C191.7951,119.2735 187.7761,123.2925 182.8181,123.2925 C177.8601,123.2925 173.8411,119.2735 173.8411,114.3155 C173.8411,109.3575 177.8601,105.3385 182.8181,105.3385 C187.7761,105.3385 191.7951,109.3575 191.7951,114.3155" id="Fill-25" fill="#F48C00"></path>
                <path d="M182.819,57.4622 C165.48,57.4622 149.954,65.2872 139.517,77.5652 L142.624,80.4172 C145.477,83.0362 150.285,83.1952 153.191,80.6352 C161.1,73.6662 171.472,69.4312 182.819,69.4312 C194.164,69.4312 204.535,73.6652 212.444,80.6332 C215.35,83.1932 220.158,83.0342 223.011,80.4152 L226.119,77.5622 C215.682,65.2862 200.156,57.4622 182.819,57.4622" id="Fill-27" fill="#F48C00"></path>
                <path d="M182.819,81.4004 C174.976,81.4004 167.773,84.1654 162.116,88.7654 C159.228,91.1134 158.979,95.4284 161.721,97.9464 L161.741,97.9634 C163.879,99.9264 167.202,100.1774 169.417,98.3024 C173.043,95.2354 177.706,93.3694 182.819,93.3694 C187.931,93.3694 192.592,95.2344 196.218,98.3014 C198.434,100.1744 201.756,99.9234 203.894,97.9614 L203.914,97.9434 C206.656,95.4264 206.407,91.1104 203.518,88.7624 C197.862,84.1644 190.661,81.4004 182.819,81.4004" id="Fill-29" fill="#7A7D80"></path>
            </g>
            <g id="Group-34" transform="translate(159.800405, 82.608500)">
                <mask id="mask-2" fill="white">
                    <use xlink:href="#path-1"></use>
                </mask>
                <g id="Clip-33"></g>
                <path d="M-0.993804619,10.3681 C-0.993804619,10.3681 4.94119538,-0.7669 22.3961954,-0.7669 C39.8501954,-0.7669 47.3461954,9.7721 47.3461954,9.7721 L47.3461954,18.9471 L-0.993804619,18.9471 L-0.993804619,10.3681 Z" id="Fill-32" fill="#F48C00" mask="url(#mask-2)"></path>
            </g>
            <g id="Group-49" transform="translate(106.704800, 0.000000)">
                <path d="M114.964,23.2974 L15.156,23.2974 L15.156,107.4684 L0,107.4684 L15.156,123.8854 L15.156,158.1164 L136.505,158.1164 L136.505,44.8384 C136.505,32.9414 126.861,23.2974 114.964,23.2974 Z" id="Stroke-35" stroke="#424445" stroke-width="4" stroke-linecap="round" stroke-linejoin="round"></path>
                <g id="Group-40" transform="translate(131.814400, 0.000000)">
                    <line x1="0" y1="13.378" x2="2.752" y2="0" id="Fill-37" fill="#F48C00"></line>
                    <line x1="0" y1="13.378" x2="2.752" y2="0" id="Stroke-39" stroke="#F48C00" stroke-width="4" stroke-linecap="round" stroke-linejoin="round"></line>
                </g>
                <g id="Group-44" transform="translate(142.751500, 2.183900)">
                    <line x1="5.68434189e-14" y1="16.364" x2="16.344" y2="0" id="Fill-41" fill="#F48C00"></line>
                    <line x1="5.68434189e-14" y1="16.364" x2="16.344" y2="0" id="Stroke-43" stroke="#F48C00" stroke-width="4" stroke-linecap="round" stroke-linejoin="round"></line>
                </g>
                <g id="Group-48" transform="translate(147.608000, 27.932300)">
                    <line x1="-5.68434189e-14" y1="2.233" x2="14.061" y2="0" id="Fill-45" fill="#F48C00"></line>
                    <line x1="-5.68434189e-14" y1="2.233" x2="14.061" y2="0" id="Stroke-47" stroke="#F48C00" stroke-width="4" stroke-linecap="round" stroke-linejoin="round"></line>
                </g>
            </g>
        </g>
    </g>
</svg>