<?xml version="1.0" encoding="UTF-8"?>
<svg width="375px" height="240px" viewBox="0 0 375 240" version="1.1" xmlns="http://www.w3.org/2000/svg" xmlns:xlink="http://www.w3.org/1999/xlink">
    <title>hdpi/one_click_troubleshoot_clock</title>
    <g id="one_click_troubleshoot_clock" stroke="none" stroke-width="1" fill="none" fill-rule="evenodd">
        <g id="04_atoms/colors/02_neutral_colors/neutral_light_gray_2" fill="#F5F5F5">
            <rect id="Shape" x="0" y="0" width="375" height="280"></rect>
        </g>
        <g id="Group-83" transform="translate(66.000000, 40.000000)">
            <path d="M40.5223,80.376 C40.5223,35.986 76.5073,0 120.8983,0 C165.2883,0 201.2733,35.986 201.2733,80.376 C201.2733,124.766 165.2883,160.752 120.8983,160.752 C76.5073,160.752 40.5223,124.766 40.5223,80.376" id="Fill-1" fill="#57595B"></path>
            <path d="M40.5223,80.376 C40.5223,35.986 76.5073,0 120.8983,0 C165.2883,0 201.2733,35.986 201.2733,80.376 C201.2733,124.766 165.2883,160.752 120.8983,160.752 C76.5073,160.752 40.5223,124.766 40.5223,80.376 Z" id="Stroke-3" stroke="#424445" stroke-width="4"></path>
            <path d="M49.4619,80.2883 C49.4619,40.8353 81.4449,8.8523 120.8979,8.8523 C160.3509,8.8523 192.3339,40.8353 192.3339,80.2883 C192.3339,119.7413 160.3509,151.7243 120.8979,151.7243 C81.4449,151.7243 49.4619,119.7413 49.4619,80.2883" id="Fill-5" fill="#F1F2F3"></path>
            <path d="M49.4619,80.2883 C49.4619,40.8353 81.4449,8.8523 120.8979,8.8523 C160.3509,8.8523 192.3339,40.8353 192.3339,80.2883 C192.3339,119.7413 160.3509,151.7243 120.8979,151.7243 C81.4449,151.7243 49.4619,119.7413 49.4619,80.2883 Z" id="Stroke-7" stroke="#424445" stroke-width="4"></path>
            <path d="M119.762,33.0413 C119.86,32.1723 122.03,32.1733 122.127,33.0423 L127.295,79.5523 L127.295,79.1403 C127.295,81.2213 124.431,82.9083 120.898,82.9083 C117.365,82.9083 114.5,81.2213 114.5,79.1403 L114.5,79.5523 L119.762,33.0413 Z" id="Fill-9" fill="#F48C00"></path>
            <path d="M119.762,33.0413 C119.86,32.1723 122.03,32.1733 122.127,33.0423 L127.295,79.5523 L127.295,79.1403 C127.295,81.2213 124.431,82.9083 120.898,82.9083 C117.365,82.9083 114.5,81.2213 114.5,79.1403 L114.5,79.5523 L119.762,33.0413 Z" id="Stroke-11" stroke="#424445" stroke-width="4"></path>
            <path d="M169.2662,79.3964 C170.1352,79.4814 170.1342,81.3504 169.2652,81.4334 L122.7552,85.8864 L123.1672,85.8864 C121.0862,85.8864 119.3992,83.4184 119.3992,80.3744 C119.3992,77.3314 121.0862,74.8634 123.1672,74.8634 L122.7552,74.8634 L169.2662,79.3964 Z" id="Fill-13" fill="#F48C00"></path>
            <path d="M169.2662,79.3964 C170.1352,79.4814 170.1342,81.3504 169.2652,81.4334 L122.7552,85.8864 L123.1672,85.8864 C121.0862,85.8864 119.3992,83.4184 119.3992,80.3744 C119.3992,77.3314 121.0862,74.8634 123.1672,74.8634 L122.7552,74.8634 L169.2662,79.3964 Z" id="Stroke-15" stroke="#424445" stroke-width="4"></path>
            <path d="M111.0856,80.376 C111.0856,74.957 115.4786,70.564 120.8976,70.564 C126.3166,70.564 130.7106,74.957 130.7106,80.376 C130.7106,85.795 126.3166,90.188 120.8976,90.188 C115.4786,90.188 111.0856,85.795 111.0856,80.376" id="Fill-17" fill="#F48C00"></path>
            <path d="M111.0856,80.376 C111.0856,74.957 115.4786,70.564 120.8976,70.564 C126.3166,70.564 130.7106,74.957 130.7106,80.376 C130.7106,85.795 126.3166,90.188 120.8976,90.188 C115.4786,90.188 111.0856,85.795 111.0856,80.376 Z" id="Stroke-19" stroke="#424445" stroke-width="4"></path>
            <g id="Group-24" transform="translate(120.397800, 8.852400)">
                <line x1="0.5" y1="0" x2="0.5" y2="10.687" id="Fill-21" fill="#F48C00"></line>
                <line x1="0.5" y1="0" x2="0.5" y2="10.687" id="Stroke-23" stroke="#424445" stroke-width="4" stroke-linecap="round"></line>
            </g>
            <g id="Group-28" transform="translate(120.397800, 140.725100)">
                <line x1="0.5" y1="0" x2="0.5" y2="10.687" id="Fill-25" fill="#F48C00"></line>
                <line x1="0.5" y1="0" x2="0.5" y2="10.687" id="Stroke-27" stroke="#424445" stroke-width="4" stroke-linecap="round"></line>
            </g>
            <g id="Group-32" transform="translate(181.490700, 79.632200)">
                <line x1="10.687" y1="0.5" x2="0" y2="0.5" id="Fill-29" fill="#F48C00"></line>
                <line x1="10.687" y1="0.5" x2="0" y2="0.5" id="Stroke-31" stroke="#424445" stroke-width="4" stroke-linecap="round"></line>
            </g>
            <g id="Group-36" transform="translate(49.617900, 79.632200)">
                <line x1="10.687" y1="0.5" x2="0" y2="0.5" id="Fill-33" fill="#F48C00"></line>
                <line x1="10.687" y1="0.5" x2="0" y2="0.5" id="Stroke-35" stroke="#424445" stroke-width="4" stroke-linecap="round"></line>
            </g>
            <g id="Group-40" transform="translate(161.404600, 27.603600)">
                <line x1="7.557" y1="0" x2="0" y2="7.557" id="Fill-37" fill="#F48C00"></line>
                <line x1="7.557" y1="0" x2="0" y2="7.557" id="Stroke-39" stroke="#424445" stroke-width="4" stroke-linecap="round"></line>
            </g>
            <g id="Group-44" transform="translate(68.156400, 120.851700)">
                <line x1="7.557" y1="0" x2="0" y2="7.557" id="Fill-41" fill="#F48C00"></line>
                <line x1="7.557" y1="0" x2="0" y2="7.557" id="Stroke-43" stroke="#424445" stroke-width="4" stroke-linecap="round"></line>
            </g>
            <g id="Group-48" transform="translate(163.743300, 122.977700)">
                <line x1="7.557" y1="7.557" x2="2.84217094e-14" y2="1.42108547e-14" id="Fill-45" fill="#F48C00"></line>
                <line x1="7.557" y1="7.557" x2="2.84217094e-14" y2="1.42108547e-14" id="Stroke-47" stroke="#424445" stroke-width="4" stroke-linecap="round"></line>
            </g>
            <g id="Group-52" transform="translate(70.495200, 29.729500)">
                <line x1="7.557" y1="7.557" x2="1.42108547e-14" y2="0" id="Fill-49" fill="#F48C00"></line>
                <line x1="7.557" y1="7.557" x2="1.42108547e-14" y2="0" id="Stroke-51" stroke="#424445" stroke-width="4" stroke-linecap="round"></line>
            </g>
            <path d="M128.9396,9.0345 C125.6016,9.0345 122.6206,8.4875 119.9606,7.5425 C119.8796,7.5375 119.8036,7.5265 119.7226,7.5215 C118.6906,7.7655 117.5826,7.9095 116.3806,7.9095 C115.9666,7.9095 115.5716,7.8805 115.1776,7.8505 L49.9206,91.1925 C50.2706,92.6395 50.3956,94.1455 50.3106,95.6385 C50.5456,96.3915 50.7596,97.1535 50.9356,97.9255 C52.8306,100.6125 54.1566,103.6845 54.9266,106.9145 L131.6696,8.9005 C130.7846,8.9815 129.8786,9.0345 128.9396,9.0345" id="Fill-53" fill="#FFFFFF"></path>
            <path d="M126.2258,152.5572 C127.0838,152.3872 127.9978,152.2932 128.9668,152.2862 L192.7628,70.8082 C191.1628,67.6582 190.1928,64.1712 189.8888,60.6062 C186.4308,56.4042 184.4758,51.0712 184.0928,45.5742 C181.4458,42.8482 179.5278,39.5152 178.3608,35.9002 L92.0038,146.1912 C95.3828,146.8362 98.3018,148.1022 100.7888,149.8042 C104.1478,150.0362 107.1428,150.8062 109.7498,152.0272 C110.4948,152.0692 111.2268,152.1302 111.9398,152.2192 C113.9508,151.7362 116.1098,151.4502 118.4548,151.4502 C121.2988,151.4502 123.8798,151.8522 126.2258,152.5572" id="Fill-55" fill="#FFFFFF"></path>
            <path d="M49.4619,80.2883 C49.4619,40.8353 81.4449,8.8523 120.8979,8.8523 C160.3509,8.8523 192.3339,40.8353 192.3339,80.2883 C192.3339,119.7413 160.3509,151.7243 120.8979,151.7243 C81.4449,151.7243 49.4619,119.7413 49.4619,80.2883 Z" id="Stroke-57" stroke="#424445" stroke-width="4"></path>
            <g id="Group-62" transform="translate(14.669200, 90.545000)">
                <line x1="10.59" y1="0" x2="0" y2="6.976" id="Fill-59" fill="#F48C00"></line>
                <line x1="10.59" y1="0" x2="0" y2="6.976" id="Stroke-61" stroke="#F48C00" stroke-width="4" stroke-linecap="round" stroke-linejoin="round"></line>
            </g>
            <g id="Group-66" transform="translate(-0.000000, 79.477000)">
                <line x1="21.473" y1="0.4935" x2="0" y2="0.5065" id="Fill-63" fill="#F48C00"></line>
                <line x1="21.473" y1="0.4935" x2="0" y2="0.5065" id="Stroke-65" stroke="#F48C00" stroke-width="4" stroke-linecap="round" stroke-linejoin="round"></line>
            </g>
            <g id="Group-70" transform="translate(15.214600, 61.390100)">
                <line x1="10.697" y1="7.765" x2="0" y2="0" id="Fill-67" fill="#F48C00"></line>
                <line x1="10.697" y1="7.765" x2="0" y2="0" id="Stroke-69" stroke="#F48C00" stroke-width="4" stroke-linecap="round" stroke-linejoin="round"></line>
            </g>
            <g id="Group-74" transform="translate(217.076500, 61.389600)">
                <line x1="0" y1="6.976" x2="10.59" y2="0" id="Fill-71" fill="#F48C00"></line>
                <line x1="0" y1="6.976" x2="10.59" y2="0" id="Stroke-73" stroke="#F48C00" stroke-width="4" stroke-linecap="round" stroke-linejoin="round"></line>
            </g>
            <g id="Group-78" transform="translate(220.862700, 78.433500)">
                <line x1="0" y1="0.5065" x2="21.473" y2="0.4935" id="Fill-75" fill="#F48C00"></line>
                <line x1="0" y1="0.5065" x2="21.473" y2="0.4935" id="Stroke-77" stroke="#F48C00" stroke-width="4" stroke-linecap="round" stroke-linejoin="round"></line>
            </g>
            <g id="Group-82" transform="translate(216.424100, 89.755400)">
                <line x1="0" y1="-1.42108547e-14" x2="10.697" y2="7.765" id="Fill-79" fill="#F48C00"></line>
                <line x1="0" y1="-1.42108547e-14" x2="10.697" y2="7.765" id="Stroke-81" stroke="#F48C00" stroke-width="4" stroke-linecap="round" stroke-linejoin="round"></line>
            </g>
        </g>
    </g>
</svg>