<?xml version="1.0" encoding="UTF-8"?>
<svg width="375px" height="240px" viewBox="0 0 375 240" version="1.1" xmlns="http://www.w3.org/2000/svg" xmlns:xlink="http://www.w3.org/1999/xlink">
    <title>hdpi/refresh_reboot</title>
    <g id="refresh_reboot" stroke="none" stroke-width="1" fill="none" fill-rule="evenodd">
        <g id="04_atoms/colors/02_neutral_colors/neutral_light_gray_2" fill="#F5F5F5">
            <rect id="Shape" x="0" y="0" width="375" height="280"></rect>
        </g>
        <g id="Group-9" transform="translate(111.000000, 60.000000)">
            <path d="M147.3963,48.258 L138.3353,57.319 C135.7123,25.229 108.8573,0 76.0913,0 C54.7083,0 35.8413,10.75 24.5793,27.134 C28.0643,28.222 31.4883,29.603 34.8193,30.808 C44.3303,18.43 59.2743,10.444 76.0913,10.444 C103.8023,10.444 126.4453,32.11 128.0243,59.425 L116.8573,48.258 L112.0843,53.031 C111.7813,53.333 111.7813,53.823 112.0843,54.126 L133.4223,75.339 C133.8413,75.755 134.5283,75.72 134.9023,75.262 L152.1693,54.126 C152.4713,53.823 152.4713,53.333 152.1693,53.031 L147.3963,48.258 Z" id="Fill-1" fill="#F48C00"></path>
            <path d="M147.3963,48.258 L138.3353,57.319 C135.7123,25.229 108.8573,0 76.0913,0 C54.7083,0 35.8413,10.75 24.5793,27.134 C28.0643,28.222 31.4883,29.603 34.8193,30.808 C44.3303,18.43 59.2743,10.444 76.0913,10.444 C103.8023,10.444 126.4453,32.11 128.0243,59.425 L116.8573,48.258 L112.0843,53.031 C111.7813,53.333 111.7813,53.823 112.0843,54.126 L133.4223,75.339 C133.8413,75.755 134.5283,75.72 134.9023,75.262 L152.1693,54.126 C152.4713,53.823 152.4713,53.333 152.1693,53.031 L147.3963,48.258 Z" id="Stroke-3" stroke="#424445" stroke-width="4" stroke-linejoin="round"></path>
            <path d="M0.2265,65.0816 C-0.0755,65.3836 -0.0755,65.8736 0.2265,66.1766 L4.9995,70.9496 L14.0595,61.8886 C16.6835,93.9786 43.5385,119.2076 76.3045,119.2076 C99.5225,119.2076 119.7685,106.5306 130.5365,87.7296 C127.4185,86.0816 124.1765,84.6106 120.8005,83.7126 C111.6755,98.7316 95.1605,108.7636 76.3045,108.7636 C48.5935,108.7636 25.9505,87.0976 24.3715,59.7826 L35.5385,70.9496 L40.3115,66.1766 C40.6145,65.8746 40.6145,65.3836 40.3115,65.0816 L18.2175,44.6926 L0.2265,65.0816 Z" id="Fill-5" fill="#57595B"></path>
            <path d="M0.2265,65.0816 C-0.0755,65.3836 -0.0755,65.8736 0.2265,66.1766 L4.9995,70.9496 L14.0595,61.8886 C16.6835,93.9786 43.5385,119.2076 76.3045,119.2076 C99.5225,119.2076 119.7685,106.5306 130.5365,87.7296 C127.4185,86.0816 124.1765,84.6106 120.8005,83.7126 C111.6755,98.7316 95.1605,108.7636 76.3045,108.7636 C48.5935,108.7636 25.9505,87.0976 24.3715,59.7826 L35.5385,70.9496 L40.3115,66.1766 C40.6145,65.8746 40.6145,65.3836 40.3115,65.0816 L18.2175,44.6926 L0.2265,65.0816 Z" id="Stroke-7" stroke="#424445" stroke-width="4" stroke-linejoin="round"></path>
        </g>
    </g>
</svg>