<?xml version="1.0" encoding="UTF-8"?>
<svg width="375px" height="240px" viewBox="0 0 375 240" version="1.1" xmlns="http://www.w3.org/2000/svg" xmlns:xlink="http://www.w3.org/1999/xlink">
    <title>hdpi/success</title>
    <defs>
        <polygon id="path-1" points="0 -1.42108547e-14 44.2327924 -1.42108547e-14 44.2327924 105.4785 0 105.4785"></polygon>
    </defs>
    <g id="success" stroke="none" stroke-width="1" fill="none" fill-rule="evenodd">
        <g id="04_atoms/colors/02_neutral_colors/neutral_light_gray_2" fill="#F5F5F5">
            <rect id="Shape" x="0" y="0" width="375" height="280"></rect>
        </g>
        <g id="Group-34" transform="translate(53.000000, 34.000000)">
            <path d="M42.233,79.8302 C42.233,71.4212 48.43,64.6092 56.081,64.6092 C63.772,64.6092 65.383,69.3922 68.819,70.4342 C70.01,70.7992 71.309,70.6972 72.567,70.3862 C71.254,71.5432 69.929,72.0572 69.868,75.1352 C69.807,78.2132 69.929,78.1932 69.929,79.8372 C69.929,88.2462 63.732,95.0582 56.081,95.0582 C48.436,95.0582 42.233,88.2462 42.233,79.8302 M52.11,172.7732 L52.144,120.1762 C57.413,118.0522 63.143,115.3462 71.268,108.5062 C79.92,101.2212 82.586,90.4442 81.26,80.7162 C79.927,70.9952 78.73,67.2952 78.73,67.2952 C78.73,67.2952 69.489,56.4502 64.165,53.5142 C58.841,50.5722 51.271,48.7662 43.992,53.7442 C40.792,55.9362 38.025,59.5562 38.025,59.5562 C38.025,59.5562 37.531,50.1732 38.702,43.2452 C39.872,36.3252 46.752,23.9722 46.752,23.9722 C48.247,20.3932 46.664,16.2742 43.153,14.6232 L38.161,12.2762 L23.866,40.7962 L23.866,31.8802 C23.866,26.7662 19.679,22.6462 14.565,22.7272 L10.35,22.7952 L10.35,57.2762 L8.077,45.6332 C7.488,42.6232 4.674,40.5732 1.63,40.9452 L-7.10542736e-15,41.1352 L6.345,82.2182 L7.84,125.1212 L7.84,172.7732" id="Fill-1" fill="#F48C00"></path>
            <path d="M42.233,79.8302 C42.233,71.4212 48.43,64.6092 56.081,64.6092 C63.772,64.6092 65.383,69.3922 68.819,70.4342 C70.01,70.7992 71.309,70.6972 72.567,70.3862 C71.254,71.5432 69.929,72.0572 69.868,75.1352 C69.807,78.2132 69.929,78.1932 69.929,79.8372 C69.929,88.2462 63.732,95.0582 56.081,95.0582 C48.436,95.0582 42.233,88.2462 42.233,79.8302 Z M52.11,172.7732 L52.144,120.1762 C57.413,118.0522 63.143,115.3462 71.268,108.5062 C79.92,101.2212 82.586,90.4442 81.26,80.7162 C79.927,70.9952 78.73,67.2952 78.73,67.2952 C78.73,67.2952 69.489,56.4502 64.165,53.5142 C58.841,50.5722 51.271,48.7662 43.992,53.7442 C40.792,55.9362 38.025,59.5562 38.025,59.5562 C38.025,59.5562 37.531,50.1732 38.702,43.2452 C39.872,36.3252 46.752,23.9722 46.752,23.9722 C48.247,20.3932 46.664,16.2742 43.153,14.6232 L38.161,12.2762 L23.866,40.7962 L23.866,31.8802 C23.866,26.7662 19.679,22.6462 14.565,22.7272 L10.35,22.7952 L10.35,57.2762 L8.077,45.6332 C7.488,42.6232 4.674,40.5732 1.63,40.9452 L-7.10542736e-15,41.1352 L6.345,82.2182 L7.84,125.1212 L7.84,172.7732 L52.11,172.7732 Z" id="Stroke-3" stroke="#424445" stroke-width="4"></path>
            <path d="M45.169,16.0168 C47.219,18.0398 47.943,21.1718 46.772,23.9788 C46.772,23.9788 39.892,36.3318 38.722,43.2528 C37.552,50.1798 38.046,59.5628 38.046,59.5628 L34.02,65.5768 C34.02,65.5768 33.053,53.3048 34.014,43.1918 C34.967,33.0848 44.601,15.4558 45.169,16.0168" id="Fill-5" fill="#F07500"></path>
            <path d="M20.5176,24.7909 C22.5676,26.4689 23.8796,29.0189 23.8796,31.8809 L23.8796,40.7969 L22.2016,66.6519 L22.0396,45.7219 L20.5176,24.7909 Z" id="Fill-7" fill="#F07500"></path>
            <path d="M5.8784,42.0955 C6.9874,42.9345 7.7924,44.1725 8.0834,45.6335 L10.3564,57.2755 L10.3234,67.7075 C10.3234,67.7075 5.2764,41.6425 5.8784,42.0955" id="Fill-9" fill="#F07500"></path>
            <g id="Group-13" transform="translate(37.369000, 67.301600)">
                <mask id="mask-2" fill="white">
                    <use xlink:href="#path-1"></use>
                </mask>
                <g id="Clip-12"></g>
                <path d="M41.381,-1.42108547e-14 C41.381,-1.42108547e-14 42.578,3.7 43.911,13.422 C45.237,23.15 42.572,33.926 33.919,41.212 C25.795,48.051 20.065,50.757 14.795,52.881 L14.761,105.479 L0.257,105.479 L0.257,57.826 L0,44.303 C0,44.303 11.96,43.12 20.254,39.933 C28.548,36.747 32.363,33.628 36.876,25.05 C41.381,16.473 41.381,-1.42108547e-14 41.381,-1.42108547e-14" id="Fill-11" fill="#F07500" mask="url(#mask-2)"></path>
            </g>
            <path d="M42.233,79.837 C42.233,71.428 48.43,64.616 56.081,64.616 C63.772,64.616 65.383,69.399 68.819,70.441 C70.003,70.799 71.261,71.07 71.261,71.07 C71.261,71.07 69.901,72.835 69.868,75.135 C69.82,78.213 69.929,78.193 69.929,79.837 C69.929,88.246 63.732,95.058 56.081,95.058 C48.436,95.058 42.233,88.246 42.233,79.837 Z M23.792,52.852 L23.866,31.881 C23.866,26.766 19.679,22.646 14.564,22.7267969 L10.35,22.795 L10.35,57.276 L8.077,45.634 C7.488,42.623 4.674,40.573 1.63,40.946 L0.013,41.142 L6.359,82.225 L7.854,125.128 L7.854,172.78 L23.792,52.852 Z M52.117,172.767 L52.15,120.169 C57.42,118.045 63.15,115.339 71.275,108.5 C79.927,101.214 82.593,90.438 81.267,80.71 C79.934,70.988 78.737,67.288 78.737,67.288 C78.737,67.288 69.496,56.444 64.172,53.508 C58.848,50.565 51.278,48.759 43.999,53.738 C40.799,55.93 38.032,59.549 38.032,59.549 C38.032,59.549 37.538,50.166 38.709,43.239 C39.879,36.318 46.759,23.966 46.759,23.966 C48.254,20.387 46.671,16.267 43.16,14.616 L38.167,12.269 L25.591,37.36 L22.195,66.645 L52.117,172.767 Z" id="Stroke-14" stroke="#424445" stroke-width="4"></path>
            <line x1="10.3567" y1="63.1006" x2="10.3567" y2="57.2756" id="Stroke-16" stroke="#5F6162" stroke-width="4"></line>
            <path d="M225.9387,68.4818 L168.3417,126.0798 L145.4637,103.2008 C139.5357,97.2738 139.5357,87.9088 145.4637,81.9808 L168.3417,104.8598 L204.7187,68.4818 C210.6457,62.5538 220.0117,62.5538 225.9387,68.4818" id="Fill-18" fill="#F48C00"></path>
            <g id="Group-23" transform="translate(240.316100, 0.000000)">
                <line x1="0" y1="12.421" x2="2.555" y2="0" id="Fill-20" fill="#F48C00"></line>
                <line x1="0" y1="12.421" x2="2.555" y2="0" id="Stroke-22" stroke="#F48C00" stroke-width="4" stroke-linecap="round" stroke-linejoin="round"></line>
            </g>
            <g id="Group-27" transform="translate(250.470600, 2.028000)">
                <line x1="0" y1="15.193" x2="15.175" y2="-2.84217094e-14" id="Fill-24" fill="#F48C00"></line>
                <line x1="0" y1="15.193" x2="15.175" y2="-2.84217094e-14" id="Stroke-26" stroke="#F48C00" stroke-width="4" stroke-linecap="round" stroke-linejoin="round"></line>
            </g>
            <g id="Group-31" transform="translate(254.979700, 25.934200)">
                <line x1="0" y1="2.073" x2="13.055" y2="-2.84217094e-14" id="Fill-28" fill="#F48C00"></line>
                <line x1="0" y1="2.073" x2="13.055" y2="-2.84217094e-14" id="Stroke-30" stroke="#F48C00" stroke-width="4" stroke-linecap="round" stroke-linejoin="round"></line>
            </g>
            <path d="M221.8628,19.2259 L114.9338,19.2259 L114.9338,109.4019 L98.6968,109.4019 L114.9338,126.9899 L114.9338,163.6629 L244.9408,163.6629 L244.9408,42.3039 C244.9408,29.5579 234.6088,19.2259 221.8628,19.2259 Z" id="Stroke-32" stroke="#424445" stroke-width="4" stroke-linecap="round" stroke-linejoin="round"></path>
        </g>
    </g>
</svg>