<?xml version="1.0" encoding="UTF-8"?>
<svg width="375px" height="240px" viewBox="0 0 375 240" version="1.1" xmlns="http://www.w3.org/2000/svg" xmlns:xlink="http://www.w3.org/1999/xlink">
    <title>hdpi/troubleshoot_hand</title>
    <defs>
        <path d="M2.28088902,7.256 C-0.56411098,9.571 -0.80911098,13.823 1.89288902,16.303 L1.89288902,16.303 L1.91188902,16.32 C4.01888902,18.254 7.29288902,18.502 9.47588902,16.654 L9.47588902,16.654 C13.048889,13.632 17.642889,11.793 22.681889,11.793 L22.681889,11.793 C27.717889,11.793 32.311889,13.631 35.883889,16.652 L35.883889,16.652 C38.066889,18.499 41.339889,18.252 43.446889,16.318 L43.446889,16.318 L43.466889,16.3 C46.168889,13.82 45.922889,9.568 43.076889,7.254 L43.076889,7.254 C37.503889,2.723 30.407889,0 22.681889,0 L22.681889,0 C14.952889,0 7.85588902,2.724 2.28088902,7.256 L2.28088902,7.256 Z" id="path-1"></path>
    </defs>
    <g id="troubleshoot_hand" stroke="none" stroke-width="1" fill="none" fill-rule="evenodd">
        <g id="04_atoms/colors/02_neutral_colors/neutral_light_gray_2" fill="#F5F5F5">
            <rect id="Shape" x="0" y="0" width="375" height="280"></rect>
        </g>
        <g id="Group-52" transform="translate(50.000000, 31.000000)">
            <g id="Group-33" transform="translate(0.000000, 13.900500)">
                <path d="M222.6601,19.7794 L124.3151,19.7794 L124.3151,102.7164 L109.3811,102.7164 L124.3151,118.8934 L124.3151,152.6224 L243.8851,152.6224 L243.8851,41.0044 C243.8851,29.2824 234.3821,19.7794 222.6601,19.7794 Z" id="Stroke-1" stroke="#424445" stroke-width="4" stroke-linecap="round" stroke-linejoin="round"></path>
                <path d="M44.861,50.3911 L42.553,10.9841 C42.553,4.9181 38.164,0.0001 32.751,0.0001 L27.716,0.0001 L27.716,71.1831 C27.359,70.4901 21.053,58.2011 21.053,58.2011 C19.666,56.0511 17.591,52.3011 14.431,50.8581 C11.34,49.4501 7.961,49.6421 5.509,50.4391 C3.056,51.2431 -7.10542736e-15,52.6101 -7.10542736e-15,52.6101 C0.748,55.4121 13.484,77.7301 13.484,77.7301 C13.484,77.7301 27.414,101.9771 27.476,116.4431 C27.544,132.1251 67.323,136.8371 74.487,119.8771 C76.328,115.5161 83.581,108.3931 84.598,102.4991 C87.394,86.2751 87.504,70.2561 88.2730015,64.6781 C88.28,64.6781 63.311,54.7181 44.861,50.3911" id="Fill-3" fill="#F48C00"></path>
                <polygon id="Fill-5" fill="#F48C00" points="74.5006 119.8776 27.4826 116.4436 27.4826 164.8286 74.5006 164.8286"></polygon>
                <polygon id="Fill-7" fill="#F07500" points="43.4528 122.6252 27.4828 116.4432 27.4828 164.8282 43.4528 164.8282"></polygon>
                <path d="M82.9769,87.9987 L85.6349,86.6597 L88.2799,64.6857 C88.2939,64.5617 89.1249,61.5667 87.0369,58.9227 C85.3329,56.7587 81.4799,56.5047 81.4799,56.5047 C78.0929,56.5047 75.3459,59.2517 75.3459,62.6387 L75.3459,80.3737 C75.3459,84.5847 78.7589,87.9987 82.9769,87.9987" id="Fill-9" fill="#F48C00"></path>
                <path d="M68.6001,85.2236 L76.5541,85.2236 L76.5541,57.7476 C76.5541,53.3786 73.0101,49.8346 68.6411,49.8346 C64.2731,49.8346 60.7280896,53.3786 60.7280896,57.7476 L60.7280896,74.5976 C60.7211,78.9526 64.2521,85.2236 68.6001,85.2236" id="Fill-11" fill="#F48C00"></path>
                <path d="M52.458,84.8252 L61.381,84.8252 C61.539,84.8252 61.669,84.6942 61.669,84.5372 L61.669,53.3582 C61.669,48.6052 57.816,44.7582 53.069,44.7582 C48.316,44.7582 44.4689925,48.6122 44.4689925,53.3582 L44.4689925,74.0822 C44.463,78.4992 48.041,84.8252 52.458,84.8252" id="Fill-13" fill="#F48C00"></path>
                <path d="M10.6123,65.9493 C6.1333,57.5963 0.0063,52.6093 0.0063,52.6093 C5.4813,63.6753 13.4903,77.7293 13.4903,77.7293 C13.4903,77.7293 27.4203,101.9773 27.4823,116.4433 C27.5513,132.1253 43.4533,141.0343 43.4533,122.6253 C43.4533,114.2863 32.5383,106.4903 26.4933,94.6483 C20.4623,82.8053 11.9173,68.3813 10.6123,65.9493" id="Fill-15" fill="#F07500"></path>
                <path d="M32.9502,65.86 L32.4692,12.749 C32.1462,0.962 27.7231933,0 27.7231933,0 L27.7231933,84.173 C27.7162,84.173 33.2322,80.628 32.9502,65.86" id="Fill-17" fill="#F07500"></path>
                <path d="M74.5006,164.8281 L74.5006,119.8771 C76.3416,115.5161 83.5946,108.3931 84.6116,102.4991 C87.4076,86.2741 87.5176,70.2561 88.2866,64.6781 C88.3006,64.5551 88.8016,61.7931 87.0436,58.9151 C85.3326,56.1201 81.4866,56.4981 81.4866,56.4981 C79.4666,56.4981 77.6806,57.4801 76.5616,58.9841 L76.5616,58.0021 C76.5616,53.7841 73.3676,50.1161 69.1566,49.8551 C65.9346,49.6491 63.0916,51.3801 61.6766,53.9971 L61.6766,53.6541 C61.6766,48.7421 57.6986,44.7651 52.7876,44.7651 C49.1336,44.7651 46.0356,47.1281 44.9226,50.4051 C44.8886,50.3981 44.9026,50.4051 44.8676,50.3981 L42.5596,10.9911 C42.5596,4.9251 38.1706,0.0071 32.7576,0.0071 L27.7226,0.0071 L27.7226,71.1901 C27.3656,70.4961 21.0596,58.2081 21.0596,58.2081 C19.6726,56.0581 17.5976,52.3071 14.4386,50.8651 C11.3476,49.4571 7.9676,49.6491 5.5156,50.4461 C3.0636,51.2501 0.0066,52.6171 0.0066,52.6171 C0.7556,55.4191 13.4906,77.7361 13.4906,77.7361 C13.4906,77.7361 27.4206,101.9841 27.4826,116.4501 L27.4826,164.8351" id="Stroke-19" stroke="#424445" stroke-width="4" stroke-linecap="round" stroke-linejoin="round"></path>
                <line x1="27.716" y1="71.1835" x2="27.716" y2="86.0895" id="Stroke-21" stroke="#424445" stroke-width="4" stroke-linecap="round" stroke-linejoin="round"></line>
                <line x1="60.3299" y1="59.3345" x2="61.6689" y2="53.9905" id="Stroke-23" stroke="#424445" stroke-width="4" stroke-linecap="round" stroke-linejoin="round"></line>
                <line x1="75.3455" y1="63.1193" x2="76.5545" y2="58.9843" id="Stroke-25" stroke="#424445" stroke-width="4" stroke-linecap="round" stroke-linejoin="round"></line>
                <path d="M190.8504,109.6764 C190.8504,114.5614 186.8904,118.5214 182.0054,118.5214 C177.1204,118.5214 173.1604,114.5614 173.1604,109.6764 C173.1604,104.7914 177.1204,100.8314 182.0054,100.8314 C186.8904,100.8314 190.8504,104.7914 190.8504,109.6764" id="Fill-27" fill="#F48C00"></path>
                <path d="M182.0059,53.6566 C164.9209,53.6566 149.6219,61.3666 139.3389,73.4646 L142.3999,76.2746 C145.2119,78.8556 149.9489,79.0126 152.8119,76.4896 C160.6059,69.6226 170.8259,65.4506 182.0059,65.4506 C193.1849,65.4506 203.4039,69.6226 211.1969,76.4876 C214.0599,79.0106 218.7969,78.8536 221.6079,76.2726 L224.6709,73.4616 C214.3869,61.3656 199.0889,53.6566 182.0059,53.6566" id="Fill-29" fill="#7A7D80"></path>
                <path d="M182.0059,77.2439 C174.2779,77.2439 167.1799,79.9679 161.6059,84.5009 C158.7609,86.8149 158.5149,91.0669 161.2179,93.5469 L161.2369,93.5649 C163.3439,95.4979 166.6179,95.7459 168.8009,93.8989 C172.3739,90.8759 176.9679,89.0379 182.0059,89.0379 C187.0429,89.0379 191.6359,90.8749 195.2079,93.8969 C197.3919,95.7429 200.6649,95.4959 202.7719,93.5619 L202.7909,93.5439 C205.4939,91.0639 205.2479,86.8119 202.4019,84.4979 C196.8289,79.9669 189.7329,77.2439 182.0059,77.2439" id="Fill-31" fill="#7A7D80"></path>
            </g>
            <g id="Group-36" transform="translate(159.324711, 91.144500)">
                <mask id="mask-2" fill="white">
                    <use xlink:href="#path-1"></use>
                </mask>
                <g id="Clip-35"></g>
                <path d="M-0.97921098,10.216 C-0.97921098,10.216 4.86878902,-0.756 22.067789,-0.756 C39.266789,-0.756 46.651789,9.628 46.651789,9.628 L46.651789,18.669 L-0.97921098,18.669 L-0.97921098,10.216 Z" id="Fill-34" fill="#F48C00" mask="url(#mask-2)"></path>
            </g>
            <g id="Group-51" transform="translate(109.381100, 0.000000)">
                <path d="M104.7966,34.2286 L92.3376,60.2096 C89.7466,65.6126 93.6846,71.8686 99.6766,71.8686 L134.6696,71.8686 L134.6696,43.7466 C134.6696,38.4436 138.9506,35.9126 143.0566,36.1306 L142.1446,34.2286 L104.7966,34.2286 Z" id="Fill-37" fill="#D9D9D9"></path>
                <path d="M113.279,33.6799 L14.934,33.6799 L14.934,116.6169 L0,116.6169 L14.934,132.7939 L14.934,166.5229 L134.504,166.5229 L134.504,54.9049 C134.504,43.1829 125.001,33.6799 113.279,33.6799 Z" id="Stroke-39" stroke="#424445" stroke-width="4" stroke-linecap="round" stroke-linejoin="round"></path>
                <path d="M102.2844,54.238 L126.0784,4.62 C129.0324,-1.54 137.8024,-1.54 140.7564,4.62 L164.5504,54.238 C167.1414,59.641 163.2044,65.897 157.2114,65.897 L109.6234,65.897 C103.6314,65.897 99.6934,59.641 102.2844,54.238" id="Fill-41" fill="#F48C00"></path>
                <path d="M102.2844,54.238 L126.0784,4.62 C129.0324,-1.54 137.8024,-1.54 140.7564,4.62 L164.5504,54.238 C167.1414,59.641 163.2044,65.897 157.2114,65.897 L109.6234,65.897 C103.6314,65.897 99.6934,59.641 102.2844,54.238 Z" id="Stroke-43" stroke="#424445" stroke-width="4"></path>
                <path d="M137.6705,28.1971 L137.6705,46.985101 C133.6025,46.9871 130.2055,43.8861 129.8365,39.8361 L129.8365,28.1971 L137.6705,28.1971 Z" id="Fill-45" fill="#FFFFFF"></path>
                <path d="M129.8365,32.1349 L129.8365,15.2988978 C133.9045,15.2959 137.3015,18.3969 137.6705,22.4479 L137.6705,32.1349 L129.8365,32.1349 Z" id="Fill-47" fill="#FFFFFF"></path>
                <path d="M129.0183,54.487 C129.0183,52.057 130.9883,50.088 133.4173,50.088 C135.8473,50.088 137.8173,52.057 137.8173,54.487 C137.8173,56.917 135.8473,58.886 133.4173,58.886 C130.9883,58.886 129.0183,56.917 129.0183,54.487" id="Fill-49" fill="#FFFFFF"></path>
            </g>
        </g>
    </g>
</svg>