<?xml version="1.0" encoding="UTF-8"?>
<svg width="375px" height="240px" viewBox="0 0 375 240" version="1.1" xmlns="http://www.w3.org/2000/svg" xmlns:xlink="http://www.w3.org/1999/xlink">
    <title>hdpi/troubleshoot_no_access</title>
    <g id="troubleshoot_no_access" stroke="none" stroke-width="1" fill="none" fill-rule="evenodd">
        <g id="04_atoms/colors/02_neutral_colors/neutral_light_gray_2" fill="#F5F5F5">
            <rect id="Shape" x="0" y="0" width="375" height="280"></rect>
        </g>
        <g id="Group-11" transform="translate(89.000000, 31.000000)">
            <path d="M46.0765,159.5435 L178.3015,42.9445 C176.1025,40.7135 175.3555,37.2715 176.0595,34.2105 C175.9005,33.6785 175.7695,33.1365 175.7025,32.5815 L31.7255,159.5435 L46.0765,159.5435 Z" id="Fill-1" fill="#424445"></path>
            <path d="M17.0779,12.518 L17.0779,159.095 L118.7479,159.095 L118.7479,177.402 L138.5779,159.095 L179.9249,159.095 L179.9249,48.112 C179.9249,28.454 163.9889,12.518 144.3309,12.518 L17.0779,12.518 Z" id="Stroke-3" stroke="#424445" stroke-width="4" stroke-linecap="round" stroke-linejoin="round"></path>
            <path d="M127.4034,84.0383 C126.0804,83.7263 124.7484,84.4423 124.2764,85.7173 C120.8164,95.0753 111.3254,97.4513 100.1294,97.4513 C88.9344,97.4513 79.4424,95.0753 75.9824,85.7183 C75.5114,84.4453 74.1824,83.7253 72.8624,84.0363 C68.1764,85.1403 63.8074,87.0653 59.9174,89.6513 C49.1414,96.8143 42.0364,109.0493 42.0364,122.9623 L42.0364,134.6553 C42.0364,136.1093 43.2144,137.2873 44.6684,137.2873 L155.5894,137.2873 C157.0434,137.2873 158.2214,136.1093 158.2214,134.6553 L158.2214,122.9623 C158.2214,108.4983 150.5444,95.8493 139.0454,88.8253 C135.4914,86.6553 131.5734,85.0213 127.4034,84.0383" id="Fill-5" fill="#F48C00"></path>
            <path d="M72.7941,56.3039 C72.7941,42.1059 84.3031,30.5969 98.5011,30.5969 C112.6991,30.5969 124.2081,42.1059 124.2081,56.3039 C124.2081,70.5019 112.6991,82.0109 98.5011,82.0109 C84.3031,82.0109 72.7941,70.5019 72.7941,56.3039" id="Fill-7" fill="#F48C00"></path>
            <line x1="197.003" y1="0" x2="0" y2="170.077" id="Stroke-9" stroke="#424445" stroke-width="10" stroke-linecap="round" stroke-linejoin="round"></line>
        </g>
    </g>
</svg>