<?xml version="1.0" encoding="UTF-8"?>
<svg width="375px" height="240px" viewBox="0 0 375 240" version="1.1" xmlns="http://www.w3.org/2000/svg" xmlns:xlink="http://www.w3.org/1999/xlink">
    <title>hdpi/troubleshoot_not_connected</title>
    <defs>
        <path d="M3.19764325,10.169 C-0.790356751,13.412 -1.13435675,19.371 2.65264325,22.847 L2.65264325,22.847 L2.67864325,22.872 C5.63164325,25.581 10.2196432,25.928 13.2786432,23.34 L13.2786432,23.34 C18.2856432,19.103 24.7246432,16.528 31.7846432,16.528 L31.7846432,16.528 C38.8426432,16.528 45.2796432,19.103 50.2866432,23.337 L50.2866432,23.337 C53.3466432,25.925 57.9336432,25.577 60.8856432,22.868 L60.8856432,22.868 L60.9136432,22.843 C64.6996432,19.367 64.3546432,13.407 60.3666432,10.166 L60.3666432,10.166 C52.5566432,3.816 42.6126432,0 31.7846432,0 L31.7846432,0 C20.9556432,0 11.0086432,3.818 3.19764325,10.169 L3.19764325,10.169 Z" id="path-1"></path>
    </defs>
    <g id="troubleshoot_not_connected" stroke="none" stroke-width="1" fill="none" fill-rule="evenodd">
        <g id="04_atoms/colors/02_neutral_colors/neutral_light_gray_2" fill="#F5F5F5">
            <rect id="Shape" x="0" y="0" width="375" height="280"></rect>
        </g>
        <g id="Group-18" transform="translate(91.000000, 30.000000)">
            <g id="Group-7" transform="translate(40.316400, 39.466900)">
                <path d="M72.1875,78.5051 C72.1875,85.3511 66.6375,90.9011 59.7915,90.9011 C52.9465,90.9011 47.3965,85.3511 47.3965,78.5051 C47.3965,71.6591 52.9465,66.1091 59.7915,66.1091 C66.6375,66.1091 72.1875,71.6591 72.1875,78.5051" id="Fill-1" fill="#F48C00"></path>
                <path d="M59.793,0 C35.851,0 14.411,10.805 7.10542736e-15,27.759 L4.29,31.697 C8.23,35.313 14.869,35.533 18.881,31.998 C29.803,22.375 44.125,16.527 59.793,16.527 C75.459,16.527 89.78,22.374 100.701,31.996 C104.713,35.53 111.352,35.31 115.291,31.694 L119.583,27.755 C105.171,10.803 83.733,0 59.793,0" id="Fill-3" fill="#F48C00"></path>
                <path d="M59.793,33.0548 C48.963,33.0548 39.017,36.8728 31.205,43.2238 C27.218,46.4668 26.874,52.4258 30.661,55.9018 L30.687,55.9258 C33.64,58.6358 38.228,58.9828 41.287,56.3938 C46.294,52.1588 52.733,49.5818 59.793,49.5818 C66.851,49.5818 73.288,52.1578 78.295,56.3918 C81.354,58.9788 85.942,58.6318 88.894,55.9228 L88.921,55.8978 C92.708,52.4218 92.364,46.4628 88.375,43.2198 C80.565,36.8708 70.621,33.0548 59.793,33.0548" id="Fill-5" fill="#7A7D80"></path>
            </g>
            <g id="Group-10" transform="translate(68.324657, 72.521700)">
                <mask id="mask-2" fill="white">
                    <use xlink:href="#path-1"></use>
                </mask>
                <g id="Clip-9"></g>
                <path d="M-1.37245675,14.3167 C-1.37245675,14.3167 6.82254325,-1.0593 30.9245432,-1.0593 C55.0265432,-1.0593 65.3765432,13.4927 65.3765432,13.4927 L65.3765432,26.1627 L-1.37245675,26.1627 L-1.37245675,14.3167 Z" id="Fill-8" fill="#F48C00" mask="url(#mask-2)"></path>
            </g>
            <g id="Group-17">
                <path d="M13.9128,5.9118 L13.9128,161.0788 L121.5398,161.0788 L121.5398,180.4578 L142.5328,161.0788 L186.3028,161.0788 L186.3028,43.5918 C186.3028,22.7818 169.4328,5.9118 148.6228,5.9118 L13.9128,5.9118 Z" id="Stroke-11" stroke="#424445" stroke-width="4" stroke-linecap="round" stroke-linejoin="round"></path>
                <path d="M41.1273,160.7572 L185.0083,33.8802 C182.6803,31.5182 181.8893,27.8742 182.6343,24.6342 C182.4663,24.0712 182.3283,23.4972 182.2563,22.9092 L25.9363,160.7572 L41.1273,160.7572 Z" id="Fill-13" fill="#424445"></path>
                <line x1="192.587" y1="0" x2="0" y2="166.264" id="Stroke-15" stroke="#424445" stroke-width="10" stroke-linecap="round" stroke-linejoin="round"></line>
            </g>
        </g>
    </g>
</svg>