<?xml version="1.0" encoding="UTF-8"?>
<svg width="375px" height="240px" viewBox="0 0 375 240" version="1.1" xmlns="http://www.w3.org/2000/svg" xmlns:xlink="http://www.w3.org/1999/xlink">
    <title>hdpi/try_our_home_scan</title>
    <defs>
        <polygon id="path-1" points="0 0 34.833 0 34.833 16.3306 0 16.3306"></polygon>
        <polygon id="path-3" points="0 216.028 274.822 216.028 274.822 0 0 0"></polygon>
        <path d="M1.33673708,4.253 C-0.330262921,5.608 -0.474262921,8.1 1.10873708,9.553 L1.10873708,9.553 L1.12073708,9.564 C2.35473708,10.697 4.27273708,10.842 5.55173708,9.759 L5.55173708,9.759 C7.64473708,7.988 10.3377371,6.912 13.2897371,6.912 L13.2897371,6.912 C16.2407371,6.912 18.9317371,7.988 21.0257371,9.758 L21.0257371,9.758 C22.3047371,10.84 24.2227371,10.695 25.4567371,9.562 L25.4567371,9.562 L25.4687371,9.552 C27.0517371,8.099 26.9077371,5.607 25.2397371,4.251 L25.2397371,4.251 C21.9747371,1.596 17.8167371,0 13.2897371,0 L13.2897371,0 C8.76173708,0 4.60273708,1.597 1.33673708,4.253 L1.33673708,4.253 Z" id="path-5"></path>
    </defs>
    <g id="try_our_home_scan" stroke="none" stroke-width="1" fill="none" fill-rule="evenodd">
        <g id="04_atoms/colors/02_neutral_colors/neutral_light_gray_2" fill="#F5F5F5">
            <rect id="Shape" x="0" y="0" width="375" height="280"></rect>
        </g>
        <g id="Group-64" transform="translate(50.000000, 12.000000)">
            <g id="Group-41">
                <g id="Group-3" transform="translate(42.174800, 199.697400)">
                    <mask id="mask-2" fill="white">
                        <use xlink:href="#path-1"></use>
                    </mask>
                    <g id="Clip-2"></g>
                    <path d="M34.833,0 L22.177,0 L18.809,0 L8.165,0 C3.656,0 0,3.656 0,8.165 L0,8.165 C0,12.675 3.656,16.331 8.165,16.331 L22.48,16.331 C22.472,15.986 22.466,15.642 22.458,15.298 C22.479,15.642 22.488,15.986 22.48,16.331 L34.833,16.331" id="Fill-1" fill="#D9D9D9" mask="url(#mask-2)"></path>
                </g>
                <path d="M74.9254,216.028 L219.6904,216.028 C224.2004,216.028 227.8564,212.372 227.8564,207.863 L227.8564,207.863 C227.8564,203.353 224.2004,199.697 219.6904,199.697 L56.7134,199.697" id="Fill-4" fill="#D9D9D9"></path>
                <polygon id="Fill-6" fill="#E5E4ED" points="74.9254 128.7784 92.4634 154.0944 128.3084 154.0944 109.9534 128.7784"></polygon>
                <path d="M148.2901,154.3598 L183.0641,108.1358 C183.2411,107.9008 183.5941,107.9008 183.7701,108.1358 L214.3501,148.7838 C217.1171,152.4618 218.6131,156.9388 218.6131,161.5408 L218.6131,205.4898 C218.6131,205.6968 218.4231,205.8648 218.1891,205.8648 L148.6461,205.8648 C148.4121,205.8648 148.2221,205.6968 148.2221,205.4898 L148.2221,154.5638 C148.2221,154.4898 148.2461,154.4188 148.2901,154.3598" id="Fill-8" fill="#D3D6D9"></path>
                <path d="M148.2901,154.3598 L183.0641,108.1358 C183.2411,107.9008 183.5941,107.9008 183.7701,108.1358 L214.3501,148.7838 C217.1171,152.4618 218.6131,156.9388 218.6131,161.5408 L218.6131,205.4898 C218.6131,205.6968 218.4231,205.8648 218.1891,205.8648 L148.6461,205.8648 C148.4121,205.8648 148.2221,205.6968 148.2221,205.4898 L148.2221,154.5638 C148.2221,154.4898 148.2461,154.4188 148.2901,154.3598 Z" id="Stroke-10" stroke="#424445" stroke-width="4" stroke-linecap="round" stroke-linejoin="round"></path>
                <g id="Group-15" transform="translate(54.922000, 128.180700)">
                    <polyline id="Fill-12" fill="#F1F2F3" points="37.312 26.526 18.925 1.42108547e-14 0 26.947 0 77.684 37.315 77.684"></polyline>
                    <polyline id="Stroke-14" stroke="#424445" stroke-width="4" points="37.312 26.526 18.925 1.42108547e-14 0 26.947 0 77.684 37.315 77.684"></polyline>
                </g>
                <path d="M110.2723,128.1803 L73.8643,128.1803 C73.8583,128.1803 73.8543,128.1903 73.8593,128.1963 L92.2343,154.7063 C92.2353,154.7083 92.2323,154.7063 92.2343,154.7063 L129.545302,154.7063 C129.5523,154.7063 110.2773,128.1833 110.2773,128.1833 C110.2763,128.1813 110.2743,128.1803 110.2723,128.1803" id="Fill-16" fill="#F48C00"></path>
                <path d="M110.2723,128.1803 L73.8643,128.1803 C73.8583,128.1803 73.8543,128.1903 73.8593,128.1963 L92.2343,154.7063 C92.2353,154.7083 92.2323,154.7063 92.2343,154.7063 L129.545302,154.7063 C129.5523,154.7063 110.2773,128.1833 110.2773,128.1833 C110.2763,128.1813 110.2743,128.1803 110.2723,128.1803 Z" id="Stroke-18" stroke="#424445" stroke-width="4"></path>
                <mask id="mask-4" fill="white">
                    <use xlink:href="#path-3"></use>
                </mask>
                <g id="Clip-21"></g>
                <polygon id="Fill-20" fill="#F1F2F3" mask="url(#mask-4)" points="129.434 205.865 148.222 205.865 148.222 154.68 129.434 154.68"></polygon>
                <polygon id="Stroke-22" stroke="#424445" stroke-width="4" mask="url(#mask-4)" points="129.434 205.865 148.222 205.865 148.222 154.68 129.434 154.68"></polygon>
                <path d="M74.0958,127.8359 L88.5658,107.7699 C88.6128,107.7059 88.6928,107.6669 88.7798,107.6669 L182.9458,107.6669 C183.1478,107.6669 183.2688,107.8659 183.1568,108.0139 L148.2968,154.5789 C148.2498,154.6419 148.1708,154.6799 148.0858,154.6799 L129.6838,154.7069 C129.5978,154.7069 129.5178,154.6679 129.4708,154.6039 L110.3468,128.2829 C110.3008,128.2189 110.2198,128.1799 110.1338,128.1799 L74.3088,128.1799 C74.1098,128.1799 73.9878,127.9849 74.0958,127.8359" id="Fill-23" fill="#F48C00" mask="url(#mask-4)"></path>
                <path d="M74.0958,127.8359 L88.5658,107.7699 C88.6128,107.7059 88.6928,107.6669 88.7798,107.6669 L182.9458,107.6669 C183.1478,107.6669 183.2688,107.8659 183.1568,108.0139 L148.2968,154.5789 C148.2498,154.6419 148.1708,154.6799 148.0858,154.6799 L129.6838,154.7069 C129.5978,154.7069 129.5178,154.6679 129.4708,154.6039 L110.3468,128.2829 C110.3008,128.2189 110.2198,128.1799 110.1338,128.1799 L74.3088,128.1799 C74.1098,128.1799 73.9878,127.9849 74.0958,127.8359 Z" id="Stroke-24" stroke="#424445" stroke-width="4" mask="url(#mask-4)"></path>
                <polygon id="Fill-25" fill="#5F6162" mask="url(#mask-4)" points="158.278 196.938 211.65 196.938 211.65 161.827 158.278 161.827"></polygon>
                <polygon id="Stroke-26" stroke="#424445" stroke-width="4" mask="url(#mask-4)" points="158.278 196.938 211.65 196.938 211.65 161.827 158.278 161.827"></polygon>
                <g id="Group-29" mask="url(#mask-4)">
                    <g transform="translate(62.102500, 170.753800)">
                        <path d="M7.10542736e-15,35.111 L7.10542736e-15,9.828 C7.10542736e-15,4.4 3.962,0 8.85,0 C13.737,0 17.699,4.4 17.699,9.828 L17.699,35.111" id="Fill-27" stroke="none" fill="#5F6162" fill-rule="evenodd"></path>
                        <path d="M7.10542736e-15,35.111 L7.10542736e-15,9.828 C7.10542736e-15,4.4 3.962,0 8.85,0 C13.737,0 17.699,4.4 17.699,9.828 L17.699,35.111" id="Stroke-28" stroke="#424445" stroke-width="4" fill="none"></path>
                    </g>
                </g>
                <path d="M237.0218,143.1699 C240.5008,146.8069 242.6378,151.7379 242.6378,157.1679 C242.6378,162.6009 240.4988,167.5339 237.0168,171.1709" id="Stroke-30" stroke="#424445" stroke-width="4" stroke-linecap="round" stroke-linejoin="round" mask="url(#mask-4)"></path>
                <path d="M248.4028,133.2217 C254.2178,139.5127 257.7718,147.9257 257.7718,157.1677 C257.7718,166.1527 254.4138,174.3527 248.8848,180.5827" id="Stroke-31" stroke="#424445" stroke-width="4" stroke-linecap="round" stroke-linejoin="round" mask="url(#mask-4)"></path>
                <path d="M259.8864,123.7899 C267.9214,132.5939 272.8224,144.3089 272.8224,157.1679 C272.8224,168.7169 268.8694,179.3429 262.2424,187.7659" id="Stroke-32" stroke="#424445" stroke-width="4" stroke-linecap="round" stroke-linejoin="round" mask="url(#mask-4)"></path>
                <path d="M37.8002,168.386 C34.3212,164.749 32.1842,159.818 32.1842,154.388 C32.1842,148.955 34.3232,144.022 37.8052,140.385" id="Stroke-33" stroke="#424445" stroke-width="4" stroke-linecap="round" stroke-linejoin="round" mask="url(#mask-4)"></path>
                <path d="M26.4192,178.3342 C20.6042,172.0432 17.0502,163.6302 17.0502,154.3882 C17.0502,145.4032 20.4082,137.2032 25.9372,130.9732" id="Stroke-34" stroke="#424445" stroke-width="4" stroke-linecap="round" stroke-linejoin="round" mask="url(#mask-4)"></path>
                <path d="M14.9355,187.766 C6.9005,178.962 1.9995,167.247 1.9995,154.388 C1.9995,142.839 5.9525,132.213 12.5795,123.79" id="Stroke-35" stroke="#424445" stroke-width="4" stroke-linecap="round" stroke-linejoin="round" mask="url(#mask-4)"></path>
                <polygon id="Fill-36" fill="#D3D6D9" mask="url(#mask-4)" points="92.237 205.851 129.546 205.851 129.546 154.693 92.237 154.693"></polygon>
                <polygon id="Stroke-37" stroke="#424445" stroke-width="4" stroke-linecap="round" stroke-linejoin="round" mask="url(#mask-4)" points="92.237 205.851 129.546 205.851 129.546 154.693 92.237 154.693"></polygon>
                <path d="M147.2983,70.4534 C147.2983,73.3154 144.9783,75.6364 142.1153,75.6364 C139.2533,75.6364 136.9323,73.3154 136.9323,70.4534 C136.9323,67.5914 139.2533,65.2704 142.1153,65.2704 C144.9783,65.2704 147.2983,67.5914 147.2983,70.4534" id="Fill-38" fill="#F48C00" mask="url(#mask-4)"></path>
                <path d="M142.1159,37.629 C132.1049,37.629 123.1409,42.147 117.1149,49.235 L118.9089,50.882 C120.5569,52.394 123.3319,52.486 125.0099,51.008 C129.5769,46.984 135.5649,44.539 142.1159,44.539 C148.6659,44.539 154.6539,46.984 159.2199,51.007 C160.8979,52.485 163.6739,52.393 165.3209,50.881 L167.1149,49.234 C161.0889,42.146 152.1259,37.629 142.1159,37.629" id="Fill-39" fill="#F48C00" mask="url(#mask-4)"></path>
                <path d="M142.1159,51.4498 C137.5879,51.4498 133.4289,53.0458 130.1629,55.7018 C128.4959,57.0578 128.3519,59.5488 129.9349,61.0028 L129.9459,61.0128 C131.1809,62.1458 133.0989,62.2908 134.3779,61.2088 C136.4719,59.4378 139.1639,58.3598 142.1159,58.3598 C145.0669,58.3598 147.7589,59.4368 149.8519,61.2078 C151.1309,62.2888 153.0489,62.1438 154.2839,61.0118 L154.2949,61.0008 C155.8779,59.5478 155.7339,57.0558 154.0669,55.6998 C150.8009,53.0458 146.6429,51.4498 142.1159,51.4498" id="Fill-40" fill="#7A7D80" mask="url(#mask-4)"></path>
            </g>
            <g id="Group-44" transform="translate(128.826263, 51.449000)">
                <mask id="mask-6" fill="white">
                    <use xlink:href="#path-5"></use>
                </mask>
                <g id="Clip-43"></g>
                <path d="M-0.574062921,5.9869 C-0.574062921,5.9869 2.85193708,-0.4421 12.9299371,-0.4421 C23.0079371,-0.4421 27.3349371,5.6429 27.3349371,5.6429 L27.3349371,10.9399 L-0.574062921,10.9399 L-0.574062921,5.9869 Z" id="Fill-42" fill="#F48C00" mask="url(#mask-6)"></path>
            </g>
            <g id="Group-63" transform="translate(76.902400, 1.999500)">
                <polygon id="Fill-45" fill="#F79A30" points="12.5802 107.2286 9.5022 111.5456 100.1172 111.5456 103.3362 107.2586"></polygon>
                <polygon id="Fill-47" fill="#F79A30" points="0 127.7551 3.326 132.5851 36.077 132.5851 32.556 127.7551"></polygon>
                <path d="M104.4122,38.4989 L104.4122,87.0879 L84.5922,87.0879 L75.0872,95.8629 L75.0872,87.0879 L26.3522,87.0879 L26.3522,38.7109 L26.3522,44.5109 L26.3522,22.6269 L87.3502,22.6269 C96.7732,22.6269 104.4122,30.2659 104.4122,39.6889 L104.4122,44.2989" id="Stroke-49" stroke="#424445" stroke-width="4" stroke-linecap="round" stroke-linejoin="round"></path>
                <g id="Group-54" transform="translate(106.297300, 0.000000)">
                    <line x1="0" y1="13.179" x2="2.711" y2="0" id="Fill-51" fill="#F48C00"></line>
                    <line x1="0" y1="13.179" x2="2.711" y2="0" id="Stroke-53" stroke="#F48C00" stroke-width="4" stroke-linecap="round" stroke-linejoin="round"></line>
                </g>
                <g id="Group-58" transform="translate(117.071300, 2.151800)">
                    <line x1="0" y1="16.12" x2="16.101" y2="0" id="Fill-55" fill="#F48C00"></line>
                    <line x1="0" y1="16.12" x2="16.101" y2="0" id="Stroke-57" stroke="#F48C00" stroke-width="4" stroke-linecap="round" stroke-linejoin="round"></line>
                </g>
                <g id="Group-62" transform="translate(121.855500, 27.516100)">
                    <line x1="0" y1="2.2" x2="13.852" y2="0" id="Fill-59" fill="#F48C00"></line>
                    <line x1="0" y1="2.2" x2="13.852" y2="0" id="Stroke-61" stroke="#F48C00" stroke-width="4" stroke-linecap="round" stroke-linejoin="round"></line>
                </g>
            </g>
        </g>
    </g>
</svg>