<?xml version="1.0" encoding="UTF-8"?>
<svg width="375px" height="240px" viewBox="0 0 375 240" version="1.1" xmlns="http://www.w3.org/2000/svg" xmlns:xlink="http://www.w3.org/1999/xlink">
    <title>hdpi/MFA_illustration tbn</title>
    <g id="MFA_illustration-tbn" stroke="none" stroke-width="1" fill="none" fill-rule="evenodd">
        <g id="04_atoms/colors/02_neutral_colors/neutral_light_gray_2" fill="#F5F5F5">
            <rect id="Shape" x="0" y="0" width="375" height="280"></rect>
        </g>
        <g id="Group-93" transform="translate(57.000000, 23.000000)">
            <path d="M135.735,167.458 L7.701,167.458 C3.448,167.458 0,164.01 0,159.757 L0,159.613 C0,155.36 3.448,151.913 7.701,151.913 L135.735,151.913 C139.988,151.913 143.436,155.36 143.436,159.613 L143.436,159.757 C143.436,164.01 139.988,167.458 135.735,167.458" id="Fill-1" fill="#D9D9D9"></path>
            <path d="M153.9106,158.868 L9.8146,158.868 L9.8146,0 L127.1306,0 C141.9206,0 153.9106,11.99 153.9106,26.78 L153.9106,158.868 Z" id="Fill-3" fill="#FFFFFF"></path>
            <path d="M153.9106,158.868 L9.8146,158.868 L9.8146,0 L127.1306,0 C141.9206,0 153.9106,11.99 153.9106,26.78 L153.9106,158.868 Z" id="Stroke-5" stroke="#424445" stroke-width="4" stroke-linecap="round" stroke-linejoin="round"></path>
            <path d="M33.2745,61.3152 C33.2745,35.7222 54.0215,14.9752 79.6145,14.9752 C105.2075,14.9752 125.9555,35.7222 125.9555,61.3152 C125.9555,86.9082 105.2075,107.6552 79.6145,107.6552 C54.0215,107.6552 33.2745,86.9082 33.2745,61.3152 Z" id="Stroke-7" stroke="#424445" stroke-width="4" stroke-linecap="round"></path>
            <path d="M93.3181,58.744 C92.6531,58.587 91.9841,58.947 91.7471,59.587 C90.0081,64.289 85.2401,65.483 79.6151,65.483 C73.9901,65.483 69.2211,64.289 67.4831,59.588 C67.2461,58.949 66.5791,58.587 65.9151,58.743 C63.5611,59.298 61.3661,60.265 59.4111,61.564 C53.9971,65.163 50.4271,71.31 50.4271,78.301 L50.4271,84.175 C50.4271,84.906 51.0201,85.498 51.7501,85.498 L107.4801,85.498 C108.2101,85.498 108.8021,84.906 108.8021,84.175 L108.8021,78.301 C108.8021,71.033 104.9451,64.678 99.1671,61.149 C97.3821,60.059 95.4131,59.238 93.3181,58.744" id="Fill-9" fill="#F48C00"></path>
            <path d="M65.881,44.8095 C65.881,37.6765 71.664,31.8935 78.797,31.8935 C85.93,31.8935 91.713,37.6765 91.713,44.8095 C91.713,51.9425 85.93,57.7255 78.797,57.7255 C71.664,57.7255 65.881,51.9425 65.881,44.8095" id="Fill-11" fill="#F48C00"></path>
            <path d="M30.2965,142.4753 C28.2355,142.4753 26.5595,140.7983 26.5595,138.7383 L26.5595,122.0783 C26.5595,120.0173 28.2355,118.3403 30.2965,118.3403 L128.9325,118.3403 C130.9935,118.3403 132.6705,120.0173 132.6705,122.0783 L132.6705,138.7383 C132.6705,140.7983 130.9935,142.4753 128.9325,142.4753 L30.2965,142.4753 Z" id="Fill-13" fill="#FFFFFF"></path>
            <path d="M128.933,116.3403 L30.296,116.3403 C27.133,116.3403 24.559,118.9143 24.559,122.0773 L24.559,138.7373 C24.559,141.9013 27.133,144.4753 30.296,144.4753 L128.933,144.4753 C132.097,144.4753 134.67,141.9013 134.67,138.7373 L134.67,122.0773 C134.67,118.9143 132.097,116.3403 128.933,116.3403 L128.933,116.3403 Z M128.933,120.3403 C129.892,120.3403 130.67,121.1183 130.67,122.0773 L130.67,138.7373 C130.67,139.6973 129.892,140.4753 128.933,140.4753 L30.296,140.4753 C29.337,140.4753 28.559,139.6973 28.559,138.7373 L28.559,122.0773 C28.559,121.1183 29.337,120.3403 30.296,120.3403 L128.933,120.3403 Z" id="Fill-15" fill="#424445"></path>
            <g id="Group-20" transform="translate(58.712300, 125.733500)">
                <line x1="0.5" y1="-2.84217094e-14" x2="0.5" y2="9.708" id="Fill-17" fill="#7A7D80"></line>
                <line x1="0.5" y1="-2.84217094e-14" x2="0.5" y2="9.708" id="Stroke-19" stroke="#D3D6D9" stroke-width="4" stroke-linecap="round" stroke-linejoin="round"></line>
            </g>
            <g id="Group-24" transform="translate(54.986900, 128.198900)">
                <line x1="8.451" y1="4.777" x2="0" y2="0" id="Fill-21" fill="#7A7D80"></line>
                <line x1="8.451" y1="4.777" x2="0" y2="0" id="Stroke-23" stroke="#D3D6D9" stroke-width="4" stroke-linecap="round" stroke-linejoin="round"></line>
            </g>
            <g id="Group-28" transform="translate(54.986700, 128.198900)">
                <line x1="-7.10542736e-15" y1="4.777" x2="8.451" y2="0" id="Fill-25" fill="#7A7D80"></line>
                <line x1="-7.10542736e-15" y1="4.777" x2="8.451" y2="0" id="Stroke-27" stroke="#D3D6D9" stroke-width="4" stroke-linecap="round" stroke-linejoin="round"></line>
            </g>
            <g id="Group-32" transform="translate(41.299000, 125.733500)">
                <line x1="0.5" y1="-2.84217094e-14" x2="0.5" y2="9.708" id="Fill-29" fill="#7A7D80"></line>
                <line x1="0.5" y1="-2.84217094e-14" x2="0.5" y2="9.708" id="Stroke-31" stroke="#D3D6D9" stroke-width="4" stroke-linecap="round" stroke-linejoin="round"></line>
            </g>
            <g id="Group-36" transform="translate(37.573600, 128.198900)">
                <line x1="8.451" y1="4.777" x2="0" y2="0" id="Fill-33" fill="#7A7D80"></line>
                <line x1="8.451" y1="4.777" x2="0" y2="0" id="Stroke-35" stroke="#D3D6D9" stroke-width="4" stroke-linecap="round" stroke-linejoin="round"></line>
            </g>
            <g id="Group-40" transform="translate(37.573400, 128.198900)">
                <line x1="-7.10542736e-15" y1="4.777" x2="8.451" y2="0" id="Fill-37" fill="#7A7D80"></line>
                <line x1="-7.10542736e-15" y1="4.777" x2="8.451" y2="0" id="Stroke-39" stroke="#D3D6D9" stroke-width="4" stroke-linecap="round" stroke-linejoin="round"></line>
            </g>
            <g id="Group-44" transform="translate(76.689700, 125.733500)">
                <line x1="0.5" y1="-2.84217094e-14" x2="0.5" y2="9.708" id="Fill-41" fill="#7A7D80"></line>
                <line x1="0.5" y1="-2.84217094e-14" x2="0.5" y2="9.708" id="Stroke-43" stroke="#D3D6D9" stroke-width="4" stroke-linecap="round" stroke-linejoin="round"></line>
            </g>
            <g id="Group-48" transform="translate(72.964200, 128.198900)">
                <line x1="8.451" y1="4.777" x2="0" y2="0" id="Fill-45" fill="#7A7D80"></line>
                <line x1="8.451" y1="4.777" x2="0" y2="0" id="Stroke-47" stroke="#D3D6D9" stroke-width="4" stroke-linecap="round" stroke-linejoin="round"></line>
            </g>
            <g id="Group-52" transform="translate(72.964100, 128.198900)">
                <line x1="0" y1="4.777" x2="8.451" y2="0" id="Fill-49" fill="#7A7D80"></line>
                <line x1="0" y1="4.777" x2="8.451" y2="0" id="Stroke-51" stroke="#D3D6D9" stroke-width="4" stroke-linecap="round" stroke-linejoin="round"></line>
            </g>
            <g id="Group-56" transform="translate(96.105200, 125.733500)">
                <line x1="0.5" y1="-2.84217094e-14" x2="0.5" y2="9.708" id="Fill-53" fill="#7A7D80"></line>
                <line x1="0.5" y1="-2.84217094e-14" x2="0.5" y2="9.708" id="Stroke-55" stroke="#D3D6D9" stroke-width="4" stroke-linecap="round" stroke-linejoin="round"></line>
            </g>
            <g id="Group-60" transform="translate(92.379800, 128.198900)">
                <line x1="8.451" y1="4.777" x2="0" y2="0" id="Fill-57" fill="#7A7D80"></line>
                <line x1="8.451" y1="4.777" x2="0" y2="0" id="Stroke-59" stroke="#D3D6D9" stroke-width="4" stroke-linecap="round" stroke-linejoin="round"></line>
            </g>
            <g id="Group-64" transform="translate(92.379600, 128.198900)">
                <line x1="0" y1="4.777" x2="8.451" y2="0" id="Fill-61" fill="#7A7D80"></line>
                <line x1="0" y1="4.777" x2="8.451" y2="0" id="Stroke-63" stroke="#D3D6D9" stroke-width="4" stroke-linecap="round" stroke-linejoin="round"></line>
            </g>
            <g id="Group-68" transform="translate(111.885700, 134.578000)">
                <line x1="9.708" y1="0.5" x2="0" y2="0.5" id="Fill-65" fill="#D7DADC"></line>
                <line x1="9.708" y1="0.5" x2="0" y2="0.5" id="Stroke-67" stroke="#F4983C" stroke-width="4" stroke-linecap="round" stroke-linejoin="round"></line>
            </g>
            <g id="Group-72" transform="translate(209.000100, 35.308000)">
                <line x1="0" y1="12.421" x2="2.555" y2="0" id="Fill-69" fill="#F48C00"></line>
                <line x1="0" y1="12.421" x2="2.555" y2="0" id="Stroke-71" stroke="#F48C00" stroke-width="4" stroke-linecap="round" stroke-linejoin="round"></line>
            </g>
            <g id="Group-76" transform="translate(219.154700, 37.336000)">
                <line x1="0" y1="15.193" x2="15.175" y2="-2.84217094e-14" id="Fill-73" fill="#F48C00"></line>
                <line x1="0" y1="15.193" x2="15.175" y2="-2.84217094e-14" id="Stroke-75" stroke="#F48C00" stroke-width="4" stroke-linecap="round" stroke-linejoin="round"></line>
            </g>
            <g id="Group-80" transform="translate(223.663800, 61.242200)">
                <line x1="0" y1="2.073" x2="13.055" y2="-2.84217094e-14" id="Fill-77" fill="#F48C00"></line>
                <line x1="0" y1="2.073" x2="13.055" y2="-2.84217094e-14" id="Stroke-79" stroke="#F48C00" stroke-width="4" stroke-linecap="round" stroke-linejoin="round"></line>
            </g>
            <path d="M253.2931,193.0659 L139.7961,193.0659 C136.0651,193.0659 133.0401,190.0409 133.0401,186.3099 L133.0401,186.3099 C133.0401,182.5789 136.0651,179.5539 139.7961,179.5539 L253.2931,179.5539 C257.0241,179.5539 260.0491,182.5789 260.0491,186.3099 L260.0491,186.3099 C260.0491,190.0409 257.0241,193.0659 253.2931,193.0659" id="Fill-81" fill="#D9D9D9"></path>
            <path d="M137.0379,162.4606 L182.6889,67.2646 C188.3569,55.4466 205.1829,55.4466 210.8499,67.2646 L256.5019,162.4606 C261.4729,172.8266 253.9169,184.8286 242.4209,184.8286 L151.1189,184.8286 C139.6219,184.8286 132.0669,172.8266 137.0379,162.4606" id="Fill-83" fill="#F48C00"></path>
            <path d="M137.0379,162.4606 L182.6889,67.2646 C188.3569,55.4466 205.1829,55.4466 210.8499,67.2646 L256.5019,162.4606 C261.4729,172.8266 253.9169,184.8286 242.4209,184.8286 L151.1189,184.8286 C139.6219,184.8286 132.0669,172.8266 137.0379,162.4606 Z" id="Stroke-85" stroke="#424445" stroke-width="4"></path>
            <path d="M204.9292,112.4988 L204.9292,148.544803 C197.1252,148.5498 190.6062,142.6008 189.8992,134.8288 L189.8992,112.4988 L204.9292,112.4988 Z" id="Fill-87" fill="#FFFFFF"></path>
            <path d="M189.899,120.0539 L189.899,87.751898 C197.703,87.7479 204.222,93.6969 204.929,101.4679 L204.929,120.0539 L189.899,120.0539 Z" id="Fill-89" fill="#FFFFFF"></path>
            <path d="M188.3291,162.9383 C188.3291,158.2763 192.1081,154.4973 196.7701,154.4973 C201.4311,154.4973 205.2101,158.2763 205.2101,162.9383 C205.2101,167.6003 201.4311,171.3793 196.7701,171.3793 C192.1081,171.3793 188.3291,167.6003 188.3291,162.9383" id="Fill-91" fill="#FFFFFF"></path>
        </g>
    </g>
</svg>